<svg xmlns="http://www.w3.org/2000/svg" height="1200" width="1600" version="1.1" xmlns:xlink="http://www.w3.org/1999/xlink" xmlns:svgjs="http://svgjs.com/svgjs"><rect fill="#ffffff" width="1600" height="1200"></rect><g><path d="M1029.36 158.71H570.53V441.98H1029.36V158.71Z" fill="#f9b52a" opacity="1" stroke-width="4" stroke="#000000"></path><path d="M801.2 230.25C785.46 230.25 770.08 234.93 757.01 243.67 743.93 252.39 733.73 264.83 727.72 279.36 721.69 293.89 720.13 309.88 723.2 325.31 726.27 340.73 733.84 354.9 744.97 366.03 756.08 377.14 770.25 384.72 785.69 387.8 801.1 390.86 817.11 389.29 831.62 383.26 846.16 377.25 858.59 367.05 867.33 353.97 876.07 340.9 880.73 325.52 880.73 309.78 880.73 288.69 872.34 268.47 857.44 253.56 842.51 238.64 822.29 230.25 801.2 230.25V230.25ZM801.2 371.35C789.02 371.35 777.11 367.74 766.99 360.98 756.87 354.21 748.98 344.61 744.32 333.34 739.65 322.09 738.43 309.71 740.82 297.77 743.19 285.83 749.05 274.87 757.65 266.25 766.27 257.64 777.23 251.78 789.19 249.39 801.13 247.02 813.52 248.24 824.76 252.9 836.01 257.56 845.63 265.45 852.39 275.58 859.15 285.71 862.77 297.6 862.77 309.78 862.77 317.88 861.18 325.87 858.08 333.34 854.98 340.81 850.46 347.6 844.73 353.33 839.02 359.04 832.23 363.58 824.76 366.68 817.29 369.76 809.28 371.35 801.2 371.35V371.35Z" fill="#0c804f" opacity="1" stroke-width="4" stroke="#000000"></path></g><g><path d="M839.74 1008.74L839.78 816.22 809.26 816.19 809.23 1008.74H839.74Z" fill="#1f1f1f" opacity="1" stroke-width="4" stroke="#000000"></path><path d="M943.43 816.25L974.15 642.18C975.49 634.6 973.77 627.49 969.31 622.16 967.05 619.55 964.24 617.47 961.07 616.07 957.91 614.67 954.48 614 951.02 614.09H834.37C818.88 614.09 804.06 626.69 801.32 642.17L770.63 816.25H943.43ZM901.66 743.47C902.91 743.44 904.17 743.68 905.32 744.19 906.48 744.69 907.5 745.45 908.33 746.4 909.16 747.42 909.76 748.61 910.08 749.88 910.39 751.15 910.42 752.48 910.17 753.77 909.62 756.6 908.12 759.17 905.93 761.04 903.73 762.92 900.96 763.99 898.07 764.08H847.02C845.74 764.12 844.45 763.88 843.27 763.35 842.09 762.83 841.04 762.02 840.22 761.03 839.4 760.03 838.82 758.86 838.52 757.6 838.22 756.35 838.22 755.04 838.51 753.78 839.06 750.94 840.56 748.38 842.75 746.5 844.95 744.63 847.72 743.56 850.61 743.47L901.66 743.47Z" fill="#cecece" opacity="1" stroke-width="4" stroke="#000000"></path><path d="M943.43 816.25L946.83 797.02 778.25 773.36 770.63 816.25H943.43Z" fill="#cecece00" opacity="0" stroke-width="4" stroke="#ffffff00"></path><path d="M748.82 985.58H900.82C908.99 985.58 915.61 992.21 915.61 1000.38V1001.22C915.61 1009.4 908.99 1016.02 900.82 1016.02H748.82C740.65 1016.02 734.03 1009.4 734.03 1001.22V1000.38C734.03 992.21 740.65 985.58 748.82 985.58Z" fill="#cecece" opacity="1" stroke-width="4" stroke="#000000"></path><path d="M749.35 1046.5C752.36 1046.5 755.3 1045.61 757.81 1043.94 760.31 1042.26 762.26 1039.89 763.41 1037.11 764.56 1034.33 764.87 1031.26 764.28 1028.32 763.69 1025.37 762.24 1022.66 760.11 1020.53 757.98 1018.39 755.27 1016.95 752.33 1016.36 749.37 1015.77 746.31 1016.07 743.53 1017.22 740.74 1018.37 738.37 1020.33 736.69 1022.83 735.03 1025.34 734.13 1028.28 734.13 1031.28 734.14 1035.31 735.74 1039.18 738.59 1042.04 741.45 1044.89 745.31 1046.49 749.35 1046.5Z" fill="#1f1f1f" opacity="1" stroke-width="4" stroke="#000000"></path><path d="M824.87 1046.5C827.88 1046.5 830.82 1045.61 833.33 1043.94 835.83 1042.26 837.78 1039.89 838.93 1037.11 840.08 1034.33 840.39 1031.26 839.8 1028.32 839.21 1025.37 837.76 1022.66 835.63 1020.53 833.5 1018.39 830.79 1016.95 827.84 1016.36 824.89 1015.77 821.82 1016.07 819.05 1017.22 816.27 1018.37 813.89 1020.33 812.22 1022.83 810.55 1025.34 809.65 1028.28 809.65 1031.28 809.66 1035.31 811.27 1039.18 814.11 1042.04 816.97 1044.89 820.83 1046.49 824.87 1046.5V1046.5Z" fill="#1f1f1f" opacity="1" stroke-width="4" stroke="#000000"></path><path d="M900.39 1046.5C903.4 1046.5 906.34 1045.61 908.85 1043.94 911.35 1042.26 913.3 1039.89 914.45 1037.11 915.6 1034.32 915.91 1031.26 915.32 1028.32 914.73 1025.37 913.28 1022.66 911.15 1020.53 909.02 1018.39 906.31 1016.95 903.36 1016.36 900.41 1015.77 897.35 1016.07 894.57 1017.22 891.79 1018.37 889.41 1020.33 887.74 1022.83 886.07 1025.34 885.17 1028.28 885.17 1031.28 885.18 1035.31 886.79 1039.18 889.63 1042.04 892.49 1044.89 896.35 1046.49 900.39 1046.5Z" fill="#1f1f1f" opacity="1" stroke-width="4" stroke="#000000"></path><path d="M641.24 804.37H796.5C804.67 804.37 811.3 811 811.3 819.17V820.02C811.3 828.18 804.67 834.81 796.5 834.81H641.24C633.06 834.81 626.44 828.18 626.44 820.02V819.17C626.44 811 633.06 804.37 641.24 804.37Z" fill="#cecece" opacity="1" stroke-width="4" stroke="#000000"></path><path d="M771.71 804.37L943.22 804.37C951.39 804.37 958.02 811 958.02 819.17V820.02C958.02 828.18 951.39 834.81 943.22 834.81H771.71C763.54 834.81 756.91 828.18 756.91 820.02V819.17C756.91 811 763.54 804.37 771.71 804.37Z" fill="#cecece" opacity="1" stroke-width="4" stroke="#000000"></path><path d="M773.19 802.19H944.9" stroke="#000000" stroke-width="4" stroke-linecap="round" stroke-linejoin="round" opacity="1" fill="none"></path></g><g><path d="M809.22 465.8L810.39 443.95C796.43 446.61 782.68 442.88 776.39 433.5 770.32 423.91 771.38 411.87 773.73 398.44 774.47 394.07 774.79 388 774.9 382.56 775.43 370.2 776.07 353.25 782.57 343.66 793.34 327.46 810.71 327.89 836.4 327.89 849.5 327.89 855.58 331.51 864.64 340.36 873.48 349.09 884.78 356.77 884.99 368.6 885.53 393.86 878.71 463.56 878.71 466.97 878.71 466.97 892.56 467.5 895.23 467.93L880.41 543.81 812.1 560.76 788.33 467.82C795.36 466.86 809.22 465.8 809.22 465.8Z" fill="#eaa58b" opacity="1" stroke-width="4" stroke="#000000"></path><path d="M827.12 438.41C819.56 442.03 812.95 443.52 811.03 443.84 810.71 443.95 810.39 444.16 810.39 444.59L809.75 456.52C809.75 457.27 810.6 457.59 811.03 457.06L827.98 439.58C828.62 438.94 827.87 437.98 827.12 438.41Z" fill="#eaa58b00" opacity="0" stroke-width="4" stroke="#ffffff00"></path><path d="M662.35 933.78L564.52 884.65 561.64 895.94C559.19 908.63 556.95 918.86 555.56 922.16L561.53 986.53H639.33L649.78 981.31C654.36 968.95 658.2 956.8 661.5 944.76V934.74L662.35 933.78Z" fill="#eaa58b" opacity="1" stroke-width="4" stroke="#000000"></path><path d="M476.59 985.15L552.47 1022.98C558.02 1019.36 563.98 1016.37 569.74 1014.24L485.97 972.68C485.65 972.89 485.33 972.89 485.01 973.1 481.81 976.09 479.15 980.03 476.59 985.15Z" fill="#0052cc" opacity="1" stroke-width="4" stroke="#000000"></path><path d="M582 1036.52L617.38 1054.1C620.9 1047.5 624.2 1041.21 627.29 1034.71 630.91 1027.03 634.43 1019.57 637.63 1012.22 627.18 1008.38 608.64 1005.08 588.6 1008.38L582 1036.52Z" fill="#0052cc" opacity="1" stroke-width="4" stroke="#000000"></path><path d="M567.39 974.7L580.5 955.84C586.47 947.31 583.27 935.48 573.9 930.9L555.56 922.05C555.46 922.27 555.46 922.37 555.46 922.37 554.39 924.61 553.65 926.74 552.58 928.66 535.1 963.19 510.06 956.27 491.19 968.2 489.27 969.37 486.82 971.61 485.01 973.1L568.89 1014.67C595.53 1004.54 623.45 1008.38 637.1 1013.39 638.48 1010.41 639.65 1007.21 640.83 1004.01 643.92 996.34 646.9 988.88 649.67 981.31 606.08 961.38 567.39 974.7 567.39 974.7Z" fill="#ff7e61" opacity="1" stroke-width="4" stroke="#000000"></path><path d="M810.71 979.71L813.8 973.21C812.42 960.64 810.71 948.49 808.47 936.76L802.72 920.56 694.97 922.27 697.31 936.76C700.08 946.14 702.32 954.24 703.07 960.85L731.63 1017.23 810.71 979.71Z" fill="#eaa58b" opacity="1" stroke-width="4" stroke="#000000"></path><path d="M816.57 1007.64C803.46 1009.55 788.22 1014.99 773.41 1027.78L776.93 1055.06H817.21C817.42 1047.71 817.42 1040.57 817.42 1033.43 817.32 1024.9 816.89 1015.84 816.57 1007.64Z" fill="#0052cc" opacity="1" stroke-width="4" stroke="#000000"></path><path d="M661.08 1055.06H751.77C755.29 1049.52 758.7 1044.62 762.54 1040.04H663.42C661.82 1044.4 661.08 1049.31 661.08 1055.06Z" fill="#0052cc" opacity="1" stroke-width="4" stroke="#000000"></path><path d="M816.57 1008.49C816.36 1005.18 816.25 1001.88 816.04 998.68 815.51 989.94 814.65 981.42 813.8 973.21 767.23 975.34 739.2 1003.05 739.2 1003.05L743.25 977.9C744.63 968.84 737.81 960.85 728.75 960.85H703.07C703.28 961.91 703.28 962.98 703.39 963.83 703.6 966.28 703.6 968.52 703.6 970.65 703.39 1009.34 677.91 1014.24 666.4 1033.43 665.23 1035.56 664.17 1037.8 663.31 1040.25H762.32C780.02 1018.61 800.05 1010.94 816.57 1008.49Z" fill="#ff7e61" opacity="1" stroke-width="4" stroke="#000000"></path><path d="M889.68 696.22L882.22 661.9 758.91 668.51 751.45 672.34C751.45 672.34 651.91 680.34 614.39 718.7 584.87 749.08 581.46 790.86 570.06 850.86 567.07 866.95 564.09 883.15 561.53 896.16L661.5 944.97C678.98 879.42 680.47 846.81 680.37 804.39L801.54 804.71C858.99 805.14 901.73 752.17 889.68 696.22Z" fill="#0052cc" opacity="1" stroke-width="4" stroke="#000000"></path><path d="M680.37 804.61L659.05 751.42C624.84 778.81 631.77 837.86 668.43 917.36 679.62 869.4 680.58 840.42 680.37 804.61Z" fill="#0052cc00" opacity="0" stroke-width="4" stroke="#ffffff00"></path><path d="M939.67 716.25C932 683.11 919.74 662.22 919.74 662.22L851.21 666.59C851.21 666.59 709.04 682.47 665.45 734.26 629.85 776.47 679.73 879.21 697.31 936.76H808.47C798.88 886.88 782.36 843.08 763.39 805.46H853.77C923.15 805.35 950.01 761.87 939.67 716.25Z" fill="#0052cc" opacity="1" stroke-width="4" stroke="#000000"></path><path d="M919.74 662.11L851.21 666.48 839.59 678.31C895.12 710.82 939.56 716.15 939.56 716.15 931.89 683.11 919.74 662.11 919.74 662.11Z" fill="#0052cc00" opacity="0" stroke-width="4" stroke="#ffffff00"></path><path d="M745.27 771.46L763.39 805.46C763.39 805.46 865.28 805.46 835.44 805.46 796.22 805.46 759.34 767.3 745.27 771.46Z" fill="#0052cc00" opacity="0" stroke-width="4" stroke="#ffffff00"></path><path d="M722.78 697.6C699.23 706.98 678.34 719.02 665.45 734.26 640.51 763.89 657.77 823.36 676.21 876.23" stroke="#000000" stroke-width="4" stroke-linecap="round" stroke-linejoin="round" opacity="1" fill="none"></path><path d="M696.57 998.04L713.83 1005.18" stroke="#000000" stroke-width="4" stroke-linecap="round" opacity="1" fill="none"></path><path d="M686.33 1010.09L700.94 1021.06" stroke="#000000" stroke-width="4" stroke-linecap="round" opacity="1" fill="none"></path><path d="M533.18 950.08L545.01 964.58" stroke="#000000" stroke-width="4" stroke-linecap="round" opacity="1" fill="none"></path><path d="M519.43 957.22L527.11 973.85" stroke="#000000" stroke-width="4" stroke-linecap="round" opacity="1" fill="none"></path><path d="M826.06 438.41C821.69 441.07 815.29 443.42 810.39 444.16" stroke="#000000" stroke-width="4" stroke-linecap="round" stroke-linejoin="round" opacity="1" fill="none"></path><path d="M842.9 408.88L852.91 402.17" stroke="#000000" stroke-width="4" stroke-linecap="round" stroke-linejoin="round" opacity="1" fill="none"></path><path d="M805.06 407.5C803.36 411.34 798.99 413.57 794.72 412.72" stroke="#000000" stroke-width="4" stroke-linecap="round" stroke-linejoin="round" opacity="1" fill="none"></path><path d="M795.36 399.19C791.85 397.59 792.7 395.03 794.19 391.51" stroke="#000000" stroke-width="4" stroke-linecap="round" stroke-linejoin="round" opacity="1" fill="none"></path><path d="M810.5 390.87C812.15 390.87 813.48 389.54 813.48 387.89 813.48 386.24 812.15 384.9 810.5 384.9 808.85 384.9 807.51 386.24 807.51 387.89 807.51 389.54 808.85 390.87 810.5 390.87Z" fill="#231f20" opacity="1" stroke-width="4" stroke="#000000"></path><path d="M784.49 388.85C786.14 388.85 787.48 387.51 787.48 385.86 787.48 384.21 786.14 382.88 784.49 382.88 782.84 382.88 781.51 384.21 781.51 385.86 781.51 387.51 782.84 388.85 784.49 388.85Z" fill="#231f20" opacity="1" stroke-width="4" stroke="#000000"></path><path d="M895.36 318.41C908.56 305.23 908.56 283.83 895.36 270.63 882.17 257.45 860.78 257.45 847.59 270.63 834.39 283.83 834.39 305.23 847.59 318.41 860.78 331.61 882.17 331.61 895.36 318.41Z" fill="#231f20" opacity="1" stroke-width="4" stroke="#000000"></path><path d="M640.83 457.27C618.13 416.45 599.05 393.32 591.91 396.73 584.34 400.25 591.8 419.65 591.8 419.65 583.7 417.3 572.19 414.11 561.43 414.11H561.32C555.46 414.21 552.05 415.39 549.7 416.88 540.11 423.81 547.36 432.44 547.36 432.44 547.36 432.44 535.1 434.46 542.03 447.89 542.03 447.89 532.12 455.03 541.39 462.92 541.39 462.92 534.36 467.5 541.28 476.13 548.21 484.77 559.19 488.6 563.88 486.69 564.84 486.15 565.58 485.41 566.12 484.55 570.91 487.43 576.77 490.1 583.59 491.8L592.01 498.62 642 464.62 640.83 457.27Z" fill="#eaa58b" opacity="1" stroke-width="4" stroke="#000000"></path><path d="M591.8 419.65L595.74 430.84C595.74 430.84 590.84 448.74 594.47 467.5" stroke="#000000" stroke-width="4" stroke-linecap="round" stroke-linejoin="round" opacity="1" fill="none"></path><path d="M928.9 479.87C928.9 479.76 928.9 479.76 928.9 479.87 919.53 472.62 903.97 467.72 893.52 467.72L822.54 547.75 789.39 467.61C780.98 468.67 771.06 470.38 763.39 473.15 729.92 487.43 680.37 530.92 680.37 530.92 668.32 506.72 654.36 480.5 640.93 457.38L583.59 491.91C583.59 491.91 609.39 619.48 678.02 619.48 720.44 619.48 762.11 583.99 762.11 583.99L770.42 635.36 752.09 672.24H891.82V672.45C897.46 672.45 904.18 672.34 911.32 672.24L925.92 671.81C948.62 670.96 973.56 668.72 989.12 662.54 1059.99 628.97 961.94 502.46 928.9 479.87ZM910.47 606.05C911.75 596.35 913.13 586.12 914.62 575.68L933.59 602.32C925.39 603.81 917.93 604.99 910.47 606.05Z" fill="#ff5630" opacity="1" stroke-width="4" stroke="#000000"></path><path d="M769.68 636.11L865.17 635.89" stroke="#000000" stroke-width="4" stroke-linecap="round" opacity="1" fill="none"></path><path d="M822.54 547.75L819.13 633.98" stroke="#000000" stroke-width="4" stroke-linecap="round" opacity="1" fill="none"></path><path d="M757.42 557.67L762.11 583.99" stroke="#000000" stroke-width="4" stroke-linecap="round" opacity="1" fill="none"></path><path d="M900.24 555.53L881.05 612.13 904.92 607.22 910.47 606.05C912.7 584.63 914.3 575.15 914.3 575.15L900.24 555.53Z" fill="#ff563000" opacity="0" stroke-width="4" stroke="#ffffff00"></path><path d="M739.52 599.66C751.99 592.3 760.41 585.38 761.9 584.2 762 584.1 762.11 583.88 762.11 583.78L758.38 563.21C758.27 562.78 757.63 562.68 757.42 563.1L738.88 599.13C738.56 599.44 739.09 599.87 739.52 599.66Z" fill="#ff563000" opacity="0" stroke-width="4" stroke="#ffffff00"></path><path d="M680.37 530.81V551.06" stroke="#000000" stroke-width="4" stroke-linecap="round" opacity="1" fill="none"></path><path d="M567.18 481.14C567.18 479.33 566.65 477.52 565.48 475.71 565.48 475.71 571.02 476.67 573.36 471.77 576.24 465.8 571.12 460.25 571.12 460.25 571.12 460.25 578.05 461.53 580.18 455.78 581.89 449.6 576.67 444.59 576.67 444.59 576.67 444.59 582.32 441.39 578.05 432.65 574.43 425.62 561.32 421.89 561.32 421.89" stroke="#000000" stroke-width="4" stroke-linecap="round" opacity="1" fill="none"></path><path d="M541.28 463.13C549.06 468.35 557.59 472.62 566.33 476.03" stroke="#000000" stroke-width="4" stroke-linecap="round" opacity="1" fill="none"></path><path d="M542.03 447.79C553.11 454.71 558.34 456.74 571.12 460.25" stroke="#000000" stroke-width="4" stroke-linecap="round" opacity="1" fill="none"></path><path d="M547.36 432.44C557.91 438.73 564.73 442.14 576.67 444.69" stroke="#000000" stroke-width="4" stroke-linecap="round" opacity="1" fill="none"></path><path d="M763.39 805.35L748.15 776.68" stroke="#000000" stroke-width="4" stroke-linecap="round" stroke-linejoin="round" opacity="1" fill="none"></path><path d="M881.05 612.13C853.45 619.27 825.95 630.14 816.15 636 807.09 641.01 778.63 658.17 779.8 664.99 782.25 674.69 814.97 654.97 814.97 654.97 814.97 654.97 788.22 677.67 789.71 688.01 790.14 696 800.48 694.19 800.48 694.19 802.61 706.02 816.04 700.48 816.04 700.48 829.15 716.68 862.19 678.53 862.19 678.53 871.78 677.99 886.38 675.97 892.56 671.7L883.08 622.79 881.05 612.13Z" fill="#eaa58b" opacity="1" stroke-width="4" stroke="#000000"></path><path d="M816.04 700.48L848.12 671.06" stroke="#000000" stroke-width="4" stroke-linecap="round" opacity="1" fill="none"></path><path d="M800.48 694.19L836.18 658.28" stroke="#000000" stroke-width="4" stroke-linecap="round" opacity="1" fill="none"></path><path d="M814.97 654.97L823.39 647.94" stroke="#000000" stroke-width="4" stroke-linecap="round" opacity="1" fill="none"></path><path d="M914.3 575.15L900.24 555.53" stroke="#000000" stroke-width="4" stroke-linecap="round" opacity="1" fill="none"></path><path d="M933.49 602.54L955.02 608.93" stroke="#000000" stroke-width="4" stroke-linecap="round" opacity="1" fill="none"></path><path d="M948.3 484.13C948.51 425.19 898.96 421.03 890.64 382.88 885.21 353.68 880.94 340.57 872.1 331.94 863.04 323.09 851.85 317.97 838.74 317.44 806.02 316.06 785.88 327.03 776.93 344.94 772.13 354.53 770.32 368.17 770.53 372.12L832.45 373.29 836.5 390.02C836.5 390.02 862.19 375.42 869.97 390.34 880.94 411.98 846.09 428.39 846.09 428.39L852.7 484.02 948.3 484.13Z" fill="#231f20" opacity="1" stroke-width="4" stroke="#000000"></path><path d="M867.84 328.1C861.76 323.3 854.94 320 847.37 318.4" stroke="#000000" stroke-width="4" stroke-linecap="round" stroke-linejoin="round" opacity="1" fill="none"></path><path d="M881.05 612.13L933.59 602.43" stroke="#000000" stroke-width="4" stroke-linecap="round" opacity="1" fill="none"></path></g><g><path d="M721 644.21L691.52 553.55C687.14 540.11 672.69 529.18 659.24 529.18H523.73C510.29 529.18 502.88 540.11 507.27 553.55L541.92 660.17H726.17 820.06C827.97 660.17 834.44 653.7 834.44 645.79V644.21H721Z" fill="#1f1f1f" stroke="#000000" stroke-width="4" opacity="1"></path><path d="M617.06 608.39C622.96 604.29 622.71 593.72 616.5 584.78 610.29 575.86 600.48 571.94 594.58 576.03 588.68 580.13 588.92 590.7 595.13 599.64 601.34 608.57 611.16 612.49 617.06 608.39Z" fill="#959595" stroke="#000000" stroke-width="4" opacity="1"></path></g><g><path d="M1084.77 530.94L1089.74 535.4C1089.83 535.4 1089.83 535.48 1089.83 535.57L1094.03 548.68C1094.03 548.77 1094.03 548.85 1093.86 548.85L1080.74 548.77C1080.74 548.77 1069.77 544.05 1068.91 543.63V543.54L1078.17 533.08C1078.17 533.08 1078.26 533 1078.34 533L1084.77 530.94Z" fill="#3f3e3d" opacity="1" stroke-width="4" stroke="#000000"></path><path d="M1060.86 554.51L1053.31 543.28 1047.31 542.51 1041.31 544.05 1035.31 556.23C1035.31 556.31 1035.31 556.31 1035.4 556.31L1048.08 558.11 1060.77 554.6C1060.94 554.6 1060.94 554.6 1060.86 554.51Z" fill="#ffffff" opacity="1" stroke-width="4" stroke="#000000"></path><path d="M1041.4 604.14L1080.48 604.83 1098.31 584.08C1098.4 584 1098.31 583.91 1098.23 583.91H1024.85C1024.77 583.91 1024.77 584 1024.77 584.08L1041.4 604.14Z" fill="#000000" opacity="1" stroke-width="4" stroke="#000000"></path><path d="M1049.97 634.92L1068.91 543.54C1068.91 543.45 1069 543.45 1069 543.45L1093.94 548.6C1094.03 548.6 1094.03 548.68 1094.03 548.68L1075.17 640.14 1049.97 634.92Z" fill="#ff5630" opacity="1" stroke-width="4" stroke="#000000"></path><path d="M1086.23 524.34L1089.91 535.4C1089.91 535.48 1089.91 535.48 1089.83 535.48L1078.43 533.08C1078.34 533.08 1078.34 533 1078.34 532.91L1086.06 524.25C1086.06 524.25 1086.14 524.25 1086.23 524.34Z" fill="#ff5630" opacity="1" stroke-width="4" stroke="#000000"></path><path d="M1035.4 556.31L1060.86 554.6C1060.94 554.6 1060.94 554.6 1060.94 554.68L1067.03 647.86 1041.4 649.49 1035.31 556.31C1035.31 556.31 1035.31 556.31 1035.4 556.31Z" fill="#ffb1a0" opacity="1" stroke-width="4" stroke="#000000"></path><path d="M1046.54 533.43L1041.4 544.05 1053.31 543.28 1046.71 533.34C1046.71 533.34 1046.63 533.34 1046.54 533.43Z" fill="#ffb1a0" opacity="1" stroke-width="4" stroke="#000000"></path><path d="M1061.63 596.69C1074.91 596.77 1087.86 592.31 1098.31 584 1098.4 583.91 1098.49 584 1098.49 584.08L1093.43 630.2 1085.2 657.89 1038.4 657.46 1029.74 629.52 1024.77 584.08C1024.77 584 1024.85 584 1024.94 584 1035.4 592.31 1048.34 596.77 1061.63 596.69Z" fill="#ff7e61" opacity="1" stroke-width="4" stroke="#000000"></path><path d="M1029.74 629.52C1048.25 613.91 1075.17 614.34 1093.34 630.2V630.29L1089.83 662.6H1033.25L1029.74 629.52Z" fill="#6f1d0b" opacity="1" stroke-width="4" stroke="#000000"></path></g><g><path d="M452.18 1046.05V680.63L473.72 680.55V1046.05H452.18Z" fill="#2c545b" opacity="1" stroke-width="4" stroke="#000000"></path><path d="M1104.4 1046.05V680.63L1125.94 680.55V1046.05H1104.4Z" fill="#2c545b" opacity="1" stroke-width="4" stroke="#000000"></path><path d="M1104.4 717.49V680.63L1125.94 680.55V707.86L1104.4 717.49Z" fill="#2c545b00" opacity="0" stroke-width="4" stroke="#ffffff00"></path><path d="M452.18 717.49V680.63L473.72 680.55V707.86L452.18 717.49Z" fill="#2c545b00" opacity="0" stroke-width="4" stroke="#ffffff00"></path><path d="M1125.94 685.62H1104.4" stroke="#000000" stroke-width="4" stroke-linecap="round" stroke-linejoin="round" opacity="1" fill="none"></path><path d="M473.72 685.62H452.18" stroke="#000000" stroke-width="4" stroke-linecap="round" stroke-linejoin="round" opacity="1" fill="none"></path><path d="M411.65 684.14V662.16H1166.47L1166.56 684.14H411.65Z" fill="#2c545b" opacity="1" stroke-width="4" stroke="#000000"></path></g><g><path d="M444.55 1003.22L502.46 984.94 492.74 861.26 435.24 861.35 437.58 997.46Z" fill="#8676dd" opacity="1" stroke-width="4" stroke="#000000"></path><path d="M430.53 986.14L451.41 1046.69 507.29 1046.73 502.24 981.99H437.24Z" fill="#ffb1a0" opacity="1" stroke-width="4" stroke="#000000"></path><path d="M301.92 1047.03L474.47 1046.73V861.26L313.5 861.56 301.92 1047.03Z" fill="#8676dd00" opacity="0" stroke-width="4" stroke="#ffffff00"></path><path d="M407.2 873.59H331.47V925.56H407.2V873.59Z" fill="#535353" opacity="1" stroke-width="4" stroke="#000000"></path><path d="M441.36 861.26L297.76 861.56 288.36 983.12 450.84 984.2 441.36 861.26ZM396.81 896.16C396.81 902.39 391.76 907.29 385.67 907.29H353.3C347.06 907.29 342.16 902.25 342.16 896.16 342.16 889.92 347.21 885.02 353.3 885.02H385.67C391.76 885.02 396.81 890.07 396.81 896.16Z" fill="#ffb1a0" opacity="1" stroke-width="4" stroke="#000000"></path><path d="M288.41 981.99L283.36 1047.03 455.76 1046.73 450.71 981.99H288.41Z" fill="#8676dd" opacity="1" stroke-width="4" stroke="#000000"></path><path d="M441.36 861.26L455.76 1046.73" stroke="#000000" stroke-width="4" stroke-linecap="round" stroke-linejoin="round" opacity="1" fill="none"></path></g><g><path d="M1237.36 910.21C1237.36 910.21 1269.85 761.12 1305.22 748.69" stroke="#000000" stroke-width="4" stroke-linecap="round" opacity="1" fill="none"></path><path d="M1246.92 788.83C1226.84 786.92 1228.76 911.17 1228.76 911.17" stroke="#000000" stroke-width="4" stroke-linecap="round" opacity="1" fill="none"></path><path d="M1223.98 912.13C1223.98 898.75 1217.29 818.46 1202.95 808.9" stroke="#000000" stroke-width="4" stroke-linecap="round" opacity="1" fill="none"></path><path d="M1332.74 869.98C1334.46 868.73 1335.42 865.96 1335.32 862.04 1335.13 842.55 1314.2 799.92 1285.72 780.9 1275.87 774.4 1267.18 771.06 1259.91 771.06 1246.92 771.06 1242.14 781.57 1241.28 783.67 1264.03 799.92 1296.39 827.31 1331.74 869.72Z" fill="#8676dd" opacity="1" stroke-width="4" stroke="#000000"></path><path d="M1325.67 871.51C1328.73 871.51 1331.02 871.03 1332.45 870.17L1332.74 869.98C1300.88 825.91 1265.27 794.25 1241.28 783.67L1241.09 784.25C1239.75 784.06 1238.41 783.86 1237.17 783.86 1230.19 783.86 1224.93 787.02 1222.83 792.47 1221.4 796.19 1218.43 809.86 1241.18 830.98 1268.13 856.12 1308.56 871.51 1325.67 871.51Z" fill="#635a97" opacity="1" stroke-width="4" stroke="#000000"></path><path d="M1160.23 887.28C1170.3 860.44 1190.51 821.94 1201.61 806.52H1201.52C1201.52 806.42 1197.5 796.96 1187.47 796.96 1185.56 796.96 1183.55 797.34 1181.45 797.91 1173.32 800.49 1165.1 811.58 1159.37 827.45 1152.77 846.08 1149.62 872.27 1158.51 885.84 1158.89 886.51 1159.46 886.99 1160.23 887.28Z" fill="#8676dd" opacity="1" stroke-width="4" stroke="#000000"></path><path d="M1162.52 887.75C1177.72 887.75 1218.82 846.85 1218.82 821.81 1218.82 808.04 1210.69 806.04 1205.82 806.04 1203.52 806.04 1201.8 806.52 1201.61 806.52 1190.05 818.01 1166.97 858.67 1160.23 887.28 1160.9 887.56 1161.66 887.75 1162.52 887.75Z" fill="#635a97" opacity="1" stroke-width="4" stroke="#000000"></path><path d="M1383.97 773.26C1384.16 772.87 1384.16 772.49 1384.16 772.11 1382.25 764.37 1345.93 733.88 1322.04 730.06 1320.03 729.77 1318.12 729.58 1316.4 729.58 1311.14 729.58 1307.13 731.11 1304.45 733.97 1300.44 738.47 1300.34 744.49 1301.11 746.66 1317.28 749.44 1347.38 756.67 1383.97 773.26Z" fill="#8676dd" opacity="1" stroke-width="4" stroke="#000000"></path><path d="M1344.59 780.61C1364.66 780.61 1381.96 777.36 1383.97 773.26 1350.28 752.91 1316.55 747.17 1301.48 746.28V746.27C1300.34 746.21 1299.67 746.11 1299 746.11 1292.03 746.11 1285.24 751.18 1284.19 757.2 1283.04 763.79 1288.78 769.91 1299.96 774.02 1311.62 778.32 1327.39 780.61 1344.59 780.61Z" fill="#635a97" opacity="1" stroke-width="4" stroke="#000000"></path><path d="M1311.43 1046.41L1282.76 906.87H1181.45L1152.77 1046.41H1311.43Z" fill="#ffb1a0" opacity="1" stroke-width="4" stroke="#000000"></path><path d="M1202.95 1046.41L1209.64 906.87H1181.45L1152.77 1046.41H1202.95Z" fill="#ffb1a000" opacity="0" stroke-width="4" stroke="#ffffff00"></path><path d="M1170.84 961.92C1186.7 963.64 1217.96 970.14 1243.09 995.28 1263.93 1016.11 1264.21 1034.46 1265.07 1045.45" stroke="#000000" stroke-width="4" stroke-linecap="round" stroke-linejoin="round" opacity="1" fill="none"></path><path d="M1255.71 906.77C1259.15 915.95 1263.07 934.01 1246.44 945.1 1227.51 957.71 1192.92 950.16 1175.04 938.03" stroke="#000000" stroke-width="4" stroke-linecap="round" stroke-linejoin="round" opacity="1" fill="none"></path><path d="M1155.74 1033.79C1163.29 1033.03 1175.23 1029.11 1179.06 1011.52 1181.92 998.14 1173.9 988.2 1166.82 982.85" stroke="#000000" stroke-width="4" stroke-linecap="round" stroke-linejoin="round" opacity="1" fill="none"></path><path d="M1298.62 983.62C1287.15 975.78 1267.66 973.58 1247.87 980.94 1222.07 990.5 1205.82 1020.13 1196.93 1045.64" stroke="#000000" stroke-width="4" stroke-linecap="round" stroke-linejoin="round" opacity="1" fill="none"></path></g></svg>