<?xml version="1.0" encoding="utf-8"?>
<svg id="master-artboard" viewBox="0 0 1390.59912109375 345.4378356933594" version="1.1" xmlns="http://www.w3.org/2000/svg" x="0px" y="0px" style="enable-background:new 0 0 1400 980;" width="1390.59912109375px" height="345.4378356933594px"><rect id="ee-background" x="0" y="0" width="1390.59912109375" height="345.4378356933594" style="fill: white; fill-opacity: 0; pointer-events: none;"/><defs><style id="ee-google-fonts">@import url(https://fonts.googleapis.com/css?family=Fjalla+One:400|Roboto:100,100italic,300,300italic,400,400italic,500,500italic,700,700italic,900,900italic);</style></defs>

































































































<g transform="matrix(1.5614213943481445, 0, 0, 1.5614213943481445, -2.6395928859710693, -536.4618637561798)"><path d="M 0 0 H 900 V 600 H 0 V 0 Z" fill="#ffffff" transform="matrix(1, 0, 0, 0.4269614517688751, -2.2577796314018315, 337.91437158559086)"/><path d="M0 388L21.5 397.3C43 406.7 86 425.3 128.8 433C171.7 440.7 214.3 437.3 257.2 425.3C300 413.3 343 392.7 385.8 395.7C428.7 398.7 471.3 425.3 514.2 435.8C557 446.3 600 440.7 642.8 431.8C685.7 423 728.3 411 771.2 402.3C814 393.7 857 388.3 878.5 385.7L900 383L900 601L878.5 601C857 601 814 601 771.2 601C728.3 601 685.7 601 642.8 601C600 601 557 601 514.2 601C471.3 601 428.7 601 385.8 601C343 601 300 601 257.2 601C214.3 601 171.7 601 128.8 601C86 601 43 601 21.5 601L0 601Z" fill="#cccccc"/><path d="M0 465L21.5 466.3C43 467.7 86 470.3 128.8 470.5C171.7 470.7 214.3 468.3 257.2 462.3C300 456.3 343 446.7 385.8 439C428.7 431.3 471.3 425.7 514.2 425C557 424.3 600 428.7 642.8 435.8C685.7 443 728.3 453 771.2 460.7C814 468.3 857 473.7 878.5 476.3L900 479L900 601L878.5 601C857 601 814 601 771.2 601C728.3 601 685.7 601 642.8 601C600 601 557 601 514.2 601C471.3 601 428.7 601 385.8 601C343 601 300 601 257.2 601C214.3 601 171.7 601 128.8 601C86 601 43 601 21.5 601L0 601Z" fill="#d7d7d7"/><path d="M0 498L21.5 496.2C43 494.3 86 490.7 128.8 492.8C171.7 495 214.3 503 257.2 500.8C300 498.7 343 486.3 385.8 485C428.7 483.7 471.3 493.3 514.2 498.2C557 503 600 503 642.8 496.8C685.7 490.7 728.3 478.3 771.2 472.8C814 467.3 857 468.7 878.5 469.3L900 470L900 601L878.5 601C857 601 814 601 771.2 601C728.3 601 685.7 601 642.8 601C600 601 557 601 514.2 601C471.3 601 428.7 601 385.8 601C343 601 300 601 257.2 601C214.3 601 171.7 601 128.8 601C86 601 43 601 21.5 601L0 601Z" fill="#e3e3e3"/><path d="M0 518L21.5 522.5C43 527 86 536 128.8 543C171.7 550 214.3 555 257.2 551.7C300 548.3 343 536.7 385.8 530.2C428.7 523.7 471.3 522.3 514.2 528.3C557 534.3 600 547.7 642.8 549.3C685.7 551 728.3 541 771.2 533.8C814 526.7 857 522.3 878.5 520.2L900 518L900 601L878.5 601C857 601 814 601 771.2 601C728.3 601 685.7 601 642.8 601C600 601 557 601 514.2 601C471.3 601 428.7 601 385.8 601C343 601 300 601 257.2 601C214.3 601 171.7 601 128.8 601C86 601 43 601 21.5 601L0 601Z" fill="#eeeeee"/></g></svg>