<?xml version="1.0" encoding="utf-8"?>
<svg id="master-artboard" viewBox="0 0 1390.59912109375 345.4378356933594" version="1.1" xmlns="http://www.w3.org/2000/svg" x="0px" y="0px" style="enable-background:new 0 0 1400 980;" width="1390.59912109375px" height="345.4378356933594px"><rect id="ee-background" x="0" y="0" width="1390.59912109375" height="345.4378356933594" style="fill: white; fill-opacity: 0; pointer-events: none;"/><defs><style id="ee-google-fonts">@import url(https://fonts.googleapis.com/css?family=Fjalla+One:400|Roboto:100,100italic,300,300italic,400,400italic,500,500italic,700,700italic,900,900italic);</style></defs>

































































































<g transform="matrix(1.5641065835952759, 0, 0, 1.5641065835952759, -7.373230934143066, -354.6954660730147)"><path d="M 0 0 H 900 V 450 H 0 V 0 Z" fill="#eeeeee"/><path d="M0 337L25 339.2C50 341.3 100 345.7 150 341.7C200 337.7 250 325.3 300 322.5C350 319.7 400 326.3 450 335C500 343.7 550 354.3 600 356.8C650 359.3 700 353.7 750 347.2C800 340.7 850 333.3 875 329.7L900 326L900 451L875 451C850 451 800 451 750 451C700 451 650 451 600 451C550 451 500 451 450 451C400 451 350 451 300 451C250 451 200 451 150 451C100 451 50 451 25 451L0 451Z" fill="#0052cc" stroke-linecap="round" stroke-linejoin="miter"/></g></svg>