<svg xmlns="http://www.w3.org/2000/svg" height="1200" width="1600" version="1.1" xmlns:xlink="http://www.w3.org/1999/xlink" xmlns:svgjs="http://svgjs.com/svgjs"><rect fill="#ffffff" width="1600" height="1200"></rect><g><path d="M637.11 250.79H1091.33C1104.31 250.79 1114.94 261.31 1114.94 274.4V622.31C1114.94 635.29 1104.42 645.92 1091.33 645.92H637.11C624.13 645.92 613.5 635.4 613.5 622.31V274.4C613.5 261.31 624.02 250.79 637.11 250.79Z" fill="#0052cc" opacity="1" stroke-width="4" stroke="#000000"></path><path d="M613.5 347.03H1113.71" stroke="#000000" stroke-width="4" stroke-linecap="round" stroke-linejoin="round" opacity="1" fill="none"></path></g><g><path d="M379.41 213.91L695.01 215.24C705.67 215.24 708.6 216.36 708.6 227.02L714.31 242.54V475.56C714.31 486.22 705.67 494.86 695.01 494.86H379.41C368.75 494.86 360.11 486.22 360.11 475.56V242.54L365.32 227.02C365.32 216.36 368.75 213.91 379.41 213.91Z" fill="#ff5630" opacity="1" stroke-width="4" stroke="#000000"></path><path d="M379.41 207.72H695.01C705.67 207.72 714.31 216.36 714.31 227.02V242.54H360.11V227.02C360.11 216.36 368.75 207.72 379.41 207.72Z" fill="#c43717" opacity="1" stroke-width="4" stroke="#000000"></path><path d="M387.32 231.58C390.65 231.58 393.34 228.88 393.34 225.56 393.34 222.24 390.65 219.54 387.32 219.54 384 219.54 381.31 222.24 381.31 225.56 381.31 228.88 384 231.58 387.32 231.58Z" fill="#f6dad4" opacity="1" stroke-width="4" stroke="#000000"></path><path d="M406.88 231.58C410.21 231.58 412.9 228.88 412.9 225.56 412.9 222.24 410.21 219.54 406.88 219.54 403.56 219.54 400.86 222.24 400.86 225.56 400.86 228.88 403.56 231.58 406.88 231.58Z" fill="#fe5833" opacity="1" stroke-width="4" stroke="#000000"></path><path d="M426.44 231.58C429.76 231.58 432.46 228.88 432.46 225.56 432.46 222.24 429.76 219.54 426.44 219.54 423.12 219.54 420.42 222.24 420.42 225.56 420.42 228.88 423.12 231.58 426.44 231.58Z" fill="#fe5833" opacity="1" stroke-width="4" stroke="#000000"></path><path d="M492.77 225.43H581.7" stroke="#000000" stroke-width="4" stroke-linecap="round" stroke-linejoin="round" opacity="1" fill="none"></path></g><g><path d="M551.22 445.15H460.5C455.5 445.15 451.42 441.07 451.42 436.08V372.24C451.42 367.24 455.5 363.16 460.5 363.16H485.02C488.24 363.16 491.2 364.87 492.84 367.63L495.67 372.43C497.31 375.19 500.27 376.9 503.49 376.9H551.29C556.29 376.9 560.36 380.98 560.36 385.98V436.08C560.36 441.07 556.29 445.15 551.22 445.15 551.29 445.15 551.29 445.15 551.22 445.15Z" fill="#36b37e" opacity="1" stroke-width="4" stroke="#000000"></path><path d="M629.59 310.63H574.43C574.43 310.63 568.06 343.24 587.25 360.53H642.41C623.22 343.24 629.59 310.63 629.59 310.63Z" fill="#00b8d9" opacity="1" stroke-width="4" stroke="#000000"></path><path d="M552.28 282.43H497.12C497.12 282.43 490.74 315.04 509.94 332.33H565.1C545.83 315.04 552.28 282.43 552.28 282.43Z" fill="#6554c0" opacity="1" stroke-width="4" stroke="#000000"></path></g><g><path d="M1150.89 384.19H1370.21C1381.46 384.19 1390.66 393.39 1390.66 404.65V656.06C1390.66 667.32 1381.46 676.51 1370.21 676.51H1150.89C1139.64 676.51 1130.44 667.32 1130.44 656.06V404.65C1130.44 393.29 1139.64 384.19 1150.89 384.19Z" fill="#36b37e" opacity="1" stroke-width="4" stroke="#000000"></path><path d="M1177.12 448.78L1186.12 457.79 1200.71 443.3" stroke="#000000" stroke-width="4" stroke-linecap="round" stroke-linejoin="round" opacity="1" fill="none"></path><path d="M1194.66 536.59C1199.19 533.45 1200.32 527.23 1197.18 522.7 1194.04 518.16 1187.83 517.03 1183.3 520.18 1178.76 523.31 1177.63 529.53 1180.76 534.06 1183.9 538.59 1190.13 539.73 1194.66 536.59Z" stroke="#000000" stroke-width="4" stroke-linecap="round" stroke-linejoin="round" opacity="1" fill="none"></path><path d="M1194.65 614.29C1199.18 611.15 1200.32 604.94 1197.17 600.41 1194.04 595.87 1187.82 594.74 1183.29 597.88 1178.76 601.01 1177.62 607.24 1180.76 611.77 1183.9 616.3 1190.12 617.43 1194.65 614.29Z" stroke="#000000" stroke-width="4" stroke-linecap="round" stroke-linejoin="round" opacity="1" fill="none"></path><path d="M1228.99 452.4H1320" stroke="#000000" stroke-width="4" stroke-linecap="round" stroke-linejoin="round" opacity="1" fill="none"></path><path d="M1228.99 528.45H1320" stroke="#000000" stroke-width="4" stroke-linecap="round" stroke-linejoin="round" opacity="1" fill="none"></path><path d="M1228.99 605.46H1320" stroke="#000000" stroke-width="4" stroke-linecap="round" stroke-linejoin="round" opacity="1" fill="none"></path></g><g><path d="M461.45 588.16L405.22 620.96 467.84 613.72 467.6 669.34 493.34 617 535.88 664.17 512.63 605.38 556.69 601.3 513.06 583.9 545.43 536.07 496.14 568.62 479.77 520.67 475.99 570.94 424.75 546.35 461.45 588.16Z" fill="#6554c0" opacity="1" stroke-width="4" stroke="#000000"></path></g><g><path d="M1132.21 239.15L1128.03 283.09 1153.39 242.68 1181.12 276.02 1173.96 233.34 1218.21 236.39 1178 213.34 1207.76 178.92 1164.04 194.7 1156.38 154.35 1138.79 193.41 1110.35 170.25 1124.55 203.07 1083.51 201.35 1119.24 220.87 1084.61 259.48 1132.21 239.15Z" fill="#36b37e" opacity="1" stroke-width="4" stroke="#000000"></path></g><g><path d="M1201.33 729.51V741.83" stroke="#000000" stroke-width="4" stroke-linecap="round" stroke-linejoin="round" opacity="1" fill="none"></path><path d="M1201.33 776.82V789.14" stroke="#000000" stroke-width="4" stroke-linecap="round" stroke-linejoin="round" opacity="1" fill="none"></path><path d="M1231.14 759.33H1218.82" stroke="#000000" stroke-width="4" stroke-linecap="round" stroke-linejoin="round" opacity="1" fill="none"></path><path d="M1183.83 759.33H1171.51" stroke="#000000" stroke-width="4" stroke-linecap="round" stroke-linejoin="round" opacity="1" fill="none"></path><path d="M1180.26 738.25L1188.94 746.94" stroke="#000000" stroke-width="4" stroke-linecap="round" stroke-linejoin="round" opacity="1" fill="none"></path><path d="M1213.72 771.72L1222.4 780.4" stroke="#000000" stroke-width="4" stroke-linecap="round" stroke-linejoin="round" opacity="1" fill="none"></path><path d="M1222.4 738.25L1213.72 746.94" stroke="#000000" stroke-width="4" stroke-linecap="round" stroke-linejoin="round" opacity="1" fill="none"></path><path d="M1188.94 771.72L1180.26 780.4" stroke="#000000" stroke-width="4" stroke-linecap="round" stroke-linejoin="round" opacity="1" fill="none"></path></g><g><path d="M238.12 600.78V612.07" stroke="#000000" stroke-width="4" stroke-linecap="round" stroke-linejoin="round" opacity="1" fill="none"></path><path d="M238.12 644.09V655.38" stroke="#000000" stroke-width="4" stroke-linecap="round" stroke-linejoin="round" opacity="1" fill="none"></path><path d="M265.42 628.08H254.14" stroke="#000000" stroke-width="4" stroke-linecap="round" stroke-linejoin="round" opacity="1" fill="none"></path><path d="M222.11 628.08H210.83" stroke="#000000" stroke-width="4" stroke-linecap="round" stroke-linejoin="round" opacity="1" fill="none"></path><path d="M218.83 608.79L226.78 616.74" stroke="#000000" stroke-width="4" stroke-linecap="round" stroke-linejoin="round" opacity="1" fill="none"></path><path d="M249.47 639.42L257.41 647.37" stroke="#000000" stroke-width="4" stroke-linecap="round" stroke-linejoin="round" opacity="1" fill="none"></path><path d="M257.41 608.79L249.47 616.74" stroke="#000000" stroke-width="4" stroke-linecap="round" stroke-linejoin="round" opacity="1" fill="none"></path><path d="M226.78 639.42L218.83 647.37" stroke="#000000" stroke-width="4" stroke-linecap="round" stroke-linejoin="round" opacity="1" fill="none"></path></g><g><path d="M598.38 740.44L640.42 756.98 609.58 725.97 640.02 702.25 600.44 710.63 607.91 667.16 585.8 705.12 564.66 682.83 573.91 714.14 533.88 717.01 572.82 729.87 553.69 759.45 582.7 739.87 591.31 778.4 598.38 740.44Z" fill="#00b8d9" opacity="1" stroke-width="4" stroke="#000000"></path></g><g><path d="M1171.9 817.01L1259.18 842.07" stroke="#000000" stroke-width="4" stroke-linecap="round" stroke-linejoin="round" opacity="1" fill="none"></path><path d="M1055.3 852.56L1149.79 952.89" stroke="#000000" stroke-width="4" stroke-linecap="round" stroke-linejoin="round" opacity="1" fill="none"></path><path d="M993.89 916.01L1007.99 986.56" stroke="#000000" stroke-width="4" stroke-linecap="round" stroke-linejoin="round" opacity="1" fill="none"></path></g><g><path d="M514.2 743.21L355.21 792.76" stroke="#000000" stroke-width="4" stroke-linecap="round" stroke-linejoin="round" opacity="1" fill="none"></path><path d="M365.27 707.12L143.36 700.68" stroke="#000000" stroke-width="4" stroke-linecap="round" stroke-linejoin="round" opacity="1" fill="none"></path></g><g><path d="M757.4 424.26L730.8 406.39" stroke="#000000" stroke-width="4" stroke-linecap="round" stroke-linejoin="round" opacity="1" fill="none"></path><path d="M774.31 463.8L725.75 461.1" stroke="#000000" stroke-width="4" stroke-linecap="round" stroke-linejoin="round" opacity="1" fill="none"></path><path d="M771.14 494.8L748.9 507.03" stroke="#000000" stroke-width="4" stroke-linecap="round" stroke-linejoin="round" opacity="1" fill="none"></path></g><g><path d="M829.61 323.96L742.15 165.36" stroke="#000000" stroke-width="4" stroke-linecap="round" stroke-linejoin="round" opacity="1" fill="none"></path><path d="M883.88 308.03L868.65 204.23" stroke="#000000" stroke-width="4" stroke-linecap="round" stroke-linejoin="round" opacity="1" fill="none"></path></g><g><path d="M496.13 981.76L559.74 839.72C559.75 839.54 559.76 839.35 559.57 839.53L409.1 879.43C408.91 879.42 408.9 879.61 409.07 879.8L450.41 901.28C450.6 901.29 450.58 901.48 450.39 901.65L413.83 933.09 413.82 933.27 444.03 968.82 444.21 968.84 480.94 937.59C481.13 937.61 481.13 937.61 481.31 937.62L495.77 981.56C495.76 981.74 496.13 981.76 496.13 981.76Z" fill="#0052cc" opacity="1" stroke-width="4" stroke="#000000"></path></g><g><path d="M340.77 517.41L362.75 570.57 310.32 535.93 340.77 517.41Z" fill="#36b37e" opacity="1" stroke-width="4" stroke="#000000"></path><path d="M340.77 517.41L362.75 570.57 310.32 535.93 340.77 517.41Z" fill="#36b37e00" opacity="0" stroke-width="4" stroke="#ffffff00"></path><path d="M340.77 517.41L293.15 583.84 210.66 433.87C210.48 433.59 210.78 433.28 211.1 433.47L340.77 517.41Z" fill="#36b37e" opacity="1" stroke-width="4" stroke="#000000"></path><path d="M413.68 484.47L340.77 517.41 210.99 433.45C210.89 433.31 210.94 433.07 211.17 433.12L413.68 484.47Z" fill="#36b37e" opacity="1" stroke-width="4" stroke="#000000"></path><path d="M340.77 517.41L320.81 545.27" stroke="#000000" stroke-width="4" stroke-linecap="round" stroke-linejoin="round" opacity="1" fill="none"></path><path d="M211.1 433.47L340.77 517.41" stroke="#000000" stroke-width="4" stroke-linecap="round" stroke-linejoin="round" opacity="1" fill="none"></path></g><g><path d="M1431.17 550.51L1464.91 558.6 1436.24 578.1 1446.28 611.36 1414.88 596.15 1391.08 621.41 1388.55 586.78 1354.8 578.79 1383.57 559.28 1373.63 526.12 1404.83 541.14 1428.73 515.88 1431.17 550.51Z" fill="#6554c0" opacity="1" stroke-width="4" stroke="#000000"></path></g><g><path d="M1208.67 315.44L1277.94 291.2C1288.19 287.61 1299.37 292.99 1302.96 303.24L1321.22 355.42C1324.81 365.67 1319.43 376.85 1309.18 380.44L1239.91 404.69C1229.66 408.28 1218.48 402.89 1214.89 392.64L1196.63 340.46C1193.04 330.21 1198.42 319.03 1208.67 315.44Z" fill="#ff5630" opacity="1" stroke-width="4" stroke="#000000"></path><path d="M1196.91 329.89L1261.05 354.65 1295.88 295.24" stroke="#000000" stroke-width="4" stroke-linecap="round" stroke-linejoin="round" opacity="1" fill="none"></path><path d="M1250.65 351.5L1221.76 400.86" stroke="#000000" stroke-width="4" stroke-linecap="round" stroke-linejoin="round" opacity="1" fill="none"></path><path d="M1320.72 366.22L1268.54 346.12" stroke="#000000" stroke-width="4" stroke-linecap="round" stroke-linejoin="round" opacity="1" fill="none"></path></g><g><path d="M1034.85 245.52C1068.05 245.52 1094.98 218.59 1094.98 185.38 1094.98 152.17 1068.05 125.25 1034.85 125.25 1001.64 125.25 974.71 152.17 974.71 185.38 974.71 218.59 1001.64 245.52 1034.85 245.52Z" fill="#00b8d900" opacity="0" stroke-width="4" stroke="#ffffff00"></path><path d="M1034.85 234.29C1068.05 234.29 1094.98 207.37 1094.98 174.16 1094.98 140.95 1068.05 114.02 1034.85 114.02 1001.64 114.02 974.71 140.95 974.71 174.16 974.71 207.37 1001.64 234.29 1034.85 234.29Z" fill="#6554c0" opacity="1" stroke-width="4" stroke="#000000"></path><path d="M1034.85 213.88C1056.79 213.88 1074.57 196.1 1074.57 174.16 1074.57 152.22 1056.79 134.43 1034.85 134.43 1012.9 134.43 995.12 152.22 995.12 174.16 995.12 196.1 1012.9 213.88 1034.85 213.88Z" fill="#00b8d9" opacity="1" stroke-width="4" stroke="#000000"></path><path d="M1034.48 156.95V174.52L1052.78 192.82" stroke="#000000" stroke-width="4" stroke-linecap="round" stroke-linejoin="round" opacity="1" fill="none"></path></g><g><path d="M765.95 987.88C765.27 981.88 763.68 974.52 760.74 964.66L758.13 950.62 861.89 948.92 867.44 964.66C869.7 976.44 871.4 988.22 872.65 999.66L872.2 1000.68 869.48 1006.01 793.25 1042.14 765.95 987.88Z" fill="#c65a42" opacity="1" stroke-width="4" stroke="#000000"></path><path d="M728.23 1064.11L727.89 1063.55C728.68 1061.28 729.7 1059.36 730.95 1057.21 734.57 1051.2 739.44 1046.78 744.54 1042.14 755.3 1032.4 766.4 1022.2 766.51 997.17 766.51 995.13 766.4 993.55 766.29 991.28 766.17 990.26 765.95 987.88 765.95 987.88L790.75 987.77C794.95 987.77 798.91 989.58 801.63 992.75 804.35 996.04 805.59 1000.23 804.91 1004.42L801.4 1026.74C801.29 1027.08 801.74 1027.41 802.08 1027.08 808.08 1021.75 833.8 1001.36 872.42 999.66H872.65C872.65 999.66 874.35 1015.86 874.8 1024.36 874.91 1027.41 875.25 1030.02 875.37 1033.19L875.03 1034.78H874.46C859.06 1037.04 846.48 1043.84 834.82 1053.92 834.7 1054.03 833.8 1053.24 833.68 1053.35 830.06 1056.53 827.23 1059.47 823.83 1063.55L821.9 1064.45 728.8 1065.13 728.23 1064.11Z" fill="#36b37e" opacity="1" stroke-width="4" stroke="#000000"></path><path d="M747.82 927.06C727.78 871.67 702.86 802.69 730.27 770.29 771.61 721.13 907.2 705.5 908.56 705.27L946.16 701.08 946.27 701.2C946.39 701.42 958.05 721.7 965.42 753.07 970.4 775.05 966.32 795.66 953.98 811.07 939.48 829.19 914.9 838.82 882.96 838.82H824.96C844.9 878.58 859.17 920.83 867.44 964.44V964.66H760.74C760.74 964.66 752.7 940.76 747.82 927.06Z" fill="#ff5630" opacity="1" stroke-width="4" stroke="#000000"></path><path d="M760.74 964.66C757 953.68 752.7 940.76 747.71 927.06 727.66 871.67 702.74 802.69 730.15 770.29 771.5 721.13 907.08 705.5 908.44 705.27L946.05 701.08 946.16 701.2C946.27 701.42 957.94 721.7 965.3 753.07 970.29 775.05 966.21 795.66 953.86 811.07 939.37 829.19 914.79 838.82 882.84 838.82H824.96C828.47 845.73 831.76 852.64 834.93 859.89L835.04 860.11 834.7 860.23C834.36 860.34 799.93 867.93 787.58 917.09 783.73 932.72 781.01 948.58 779.65 964.66H760.74Z" fill="#ff563000" opacity="0" stroke-width="4" stroke="#ffffff00"></path><path d="M630.82 926.83L630.48 925.81C632.74 914.71 634.89 901.57 637.39 887.75L638.41 882.32C639.99 874.16 641.35 866.46 642.71 858.98 650.87 813.45 656.64 780.49 681 755.45 716.56 718.98 851.47 696.21 852.83 695.99L916.82 662.68 965.08 695.99 965.19 696.1C976.4 715.58 989.09 741.63 987.85 769.84 987.05 788.07 980.82 805.06 970.29 817.75 958.39 832.02 942.08 839.61 923.05 839.61L744.65 839.27C744.77 878.24 743.86 908.37 726.76 972.48L654.83 973.95 630.82 926.83Z" fill="#ff5630" opacity="1" stroke-width="4" stroke="#000000"></path><path d="M760.51 1023.68L776.6 1030.25" stroke="#000000" stroke-width="4" stroke-linecap="round" stroke-linejoin="round" opacity="1" fill="none"></path><path d="M751.22 1035.8L764.25 1045.54" stroke="#000000" stroke-width="4" stroke-linecap="round" stroke-linejoin="round" opacity="1" fill="none"></path><path d="M760.74 964.66H867.44" stroke="#000000" stroke-width="4" stroke-linecap="round" stroke-linejoin="round" opacity="1" fill="none"></path><path d="M630.48 1012.58L624.81 950.16C625.95 947.33 627.76 939.86 630.48 925.81L726.76 972.48C723.58 983.92 720.07 995.02 715.66 1007.14L715.09 1007.48 705.24 1012.46 630.48 1012.58Z" fill="#c65a42" opacity="1" stroke-width="4" stroke="#000000"></path><path d="M558.1 999.66L557.87 998.53C559.46 997.06 561.15 995.81 562.97 994.57 568.86 990.83 575.2 989.02 581.88 987.09 595.93 983.13 610.43 979.05 621.75 956.62 622.43 955.26 623.11 953.9 623.79 952.32 624.02 951.75 624.7 950.39 624.7 950.39L624.81 950.16 625.04 950.28 642.48 958.66C650.75 962.62 654.15 972.48 650.19 980.63 649.85 981.43 649.39 982.22 648.94 982.9L637.84 998.98C637.5 999.44 637.95 1000.12 638.52 1000 647.58 997.62 657.1 996.38 666.61 996.49 683.37 996.49 698.44 999.32 713.73 1006.35L715.32 1006.91C715.54 1007.03 715.54 1007.14 715.54 1007.37L715.09 1008.61C712.6 1015.3 710.22 1021.3 706.93 1029.23 705.8 1032.17 704.67 1035.12 703.31 1037.95L699.91 1040.44 697.31 1040.33C687.45 1036.93 681.22 1040.33 670.8 1040.44 665.14 1040.44 660.95 1035.23 655.74 1034.55 655.17 1034.44 644.3 1037.16 638.86 1039.2L637.16 1039.31 558.1 999.66Z" fill="#36b37e" opacity="1" stroke-width="4" stroke="#000000"></path><path d="M737.06 839.27L833.8 839.5" stroke="#000000" stroke-width="4" stroke-linecap="round" stroke-linejoin="round" opacity="1" fill="none"></path><path d="M740.46 906.1C743.97 881.3 744.31 862.72 744.2 839.39" stroke="#000000" stroke-width="4" stroke-linecap="round" stroke-linejoin="round" opacity="1" fill="none"></path><path d="M649.39 1061.4L655.74 1034.55 656.19 1034.44C661.51 1033.53 666.72 1032.74 672.16 1032.74 682.69 1032.63 693.12 1034.32 703.08 1037.72L703.31 1037.84 703.2 1038.06C700.59 1044.18 697.53 1050.86 693.34 1059.7 690.4 1065.7 687.34 1071.59 684.05 1077.71L683.6 1078.5 649.39 1061.4Z" fill="#6554c0" opacity="1" stroke-width="4" stroke="#000000"></path><path d="M603.86 978.03L614.73 991.28" stroke="#000000" stroke-width="4" stroke-linecap="round" stroke-linejoin="round" opacity="1" fill="none"></path><path d="M590.27 984.6L597.51 1000.23" stroke="#000000" stroke-width="4" stroke-linecap="round" stroke-linejoin="round" opacity="1" fill="none"></path><path d="M630.48 925.81L726.76 972.48" stroke="#000000" stroke-width="4" stroke-linecap="round" stroke-linejoin="round" opacity="1" fill="none"></path><path d="M876.27 497.65L877.63 489.38C873.89 490.51 870.04 491.19 866.19 491.08 855.66 491.08 846.71 487.45 842.41 481.45 835.27 471.71 835.04 460.38 841.73 439.65 841.05 438.75 835.95 432.29 836.97 428.1 837.54 425.72 841.05 424.02 847.28 423.12L847.84 421.08C851.13 411.45 853.85 403.07 857.36 396.04 862.45 385.62 875.14 391.4 887.03 386.87 894.74 383.81 893.6 383.47 901.87 383.47 917.73 383.47 928.04 385.74 938.57 395.03 955.22 410.09 957.94 427.53 955 442.94L954.88 443.62C953.3 453.13 948.54 480.2 944.92 497.88V498.44L879.56 500.93 876.27 497.65Z" fill="#c65a42" opacity="1" stroke-width="4" stroke="#000000"></path><path d="M876.27 497.65L877.63 489.38 878.31 489.04C878.31 489.04 880.58 487.91 884.43 485.98 885.79 485.3 888.05 484.74 888.96 485.87 889.64 486.55 889.64 488.25 889.53 489.15L888.17 498.44 876.27 497.65Z" fill="#c65a4200" opacity="0" stroke-width="4" stroke="#ffffff00"></path><path d="M688.7 580.11C683.71 569.92 680.54 562.55 680.2 561.53 678.84 561.19 666.38 558.25 655.85 542.5 655.28 543.64 653.02 547.26 649.05 547.26 646.22 547.26 643.16 545.56 639.88 542.28 631.84 534.23 630.7 528.46 631.27 525.06 631.61 522.68 633.08 520.53 635.23 519.4 633.76 515.66 633.65 512.26 634.89 509.54 635.91 507.39 637.61 505.58 639.76 504.67 635.91 496.63 641.69 491.19 643.05 490.06 641.01 488.93 638.97 487.91 637.16 486.89 625.83 480.88 618.36 476.92 618.36 471.82 618.36 468.42 621.41 466.61 627.08 466.61 635.01 466.61 647.69 470.12 661.06 476.01 675.22 482.13 688.36 490.17 700.25 500.03 710.67 508.86 723.7 521.44 739.1 537.63L739.33 538.09 689.49 580.45 688.7 580.11Z" fill="#c65a42" opacity="1" stroke-width="4" stroke="#000000"></path><path d="M982.52 733.59C982.41 733.36 973.35 709.35 964.74 696.21L852.83 695.99 852.26 693.95 839.23 633.12C835.84 635.84 802.76 661.32 776.14 661.32 775.35 661.32 774.56 661.32 773.76 661.21 733.21 658.83 703.08 609.33 688.7 580.11L739.1 537.63 739.22 537.75C757.45 556.89 772.97 574.67 774.78 576.82 818.51 519.51 854.19 511.01 871.52 511.01 871.97 511.01 872.42 511.01 872.76 511.01H873.44C873.56 511.01 873.67 511.01 873.78 511.01L876.27 497.65H945.03V498.21C944.8 499.57 944.58 500.82 944.35 501.95 944.24 502.75 944.01 503.43 943.9 504.22 943.67 505.12 943.44 506.03 943.33 506.71V506.94C945.94 507.28 968.82 511.13 983.54 527.44 990.11 534.57 1004.72 550.21 1013.78 573.43 1018.43 585.09 1021.49 596.53 1024.77 607.63 1025.22 608.99 1023.98 613.86 1024.32 615.11 1024.54 615.9 1022.73 616.7 1022.96 617.49 1025.9 627.91 1028.06 637.65 1029.42 646.26 1032.59 666.87 1030.89 684.43 1024.32 698.36 1016.84 714.34 1002.8 726.12 982.52 733.59Z" fill="#6554c0" opacity="1" stroke-width="4" stroke="#000000"></path><path d="M982.52 733.59C982.41 733.36 972.67 709.58 964.74 696.21L976.74 633.46 978.67 633.57C987.28 633.57 989.2 651.47 991.24 670.5 991.92 676.84 992.6 683.41 993.62 689.3 997.02 709.35 1008.46 718.3 1008.57 718.41L1008.8 718.64 1008.57 718.87C1000.76 725.44 992.15 730.19 982.52 733.59Z" fill="#6554c000" opacity="0" stroke-width="4" stroke="#ffffff00"></path><path d="M1109.95 536.16C1099.76 536.16 1090.36 540.01 1083.33 546.35 1082.09 535.59 1078.35 525.63 1072.23 517.58 1061.92 503.99 1045.27 496.29 1024.2 495.27 1027.49 486.09 1027.72 476.01 1024.88 466.73 1021.71 456.19 1014.92 448.26 1005.86 444.3 1000.3 442.03 994.3 440.79 988.3 440.9 981.16 441.01 974.14 442.26 967.46 444.64V444.52C967.68 430.25 968.48 396.95 947.29 381.55 935.97 373.05 921.24 368.29 905.84 368.29 897.46 368.29 889.07 369.77 881.26 372.82 871.18 376.68 862.91 384.94 857.36 396.04L857.92 396.61C862.91 401.82 869.59 404.2 876.84 404.2 879.45 404.2 882.16 403.86 884.77 403.18 878.99 414.39 881.6 431.61 890.21 438.97L890.55 439.31 890.89 438.97C891 438.97 903.35 430.48 913.77 430.48 920 430.48 924.19 433.31 926.45 438.97 928.15 442.94 928.15 447.47 926.34 451.32 921.36 463.21 904.48 471.94 904.48 471.94 904.48 471.94 900.85 513.51 918.07 535.82 928.15 549.07 942.76 555.76 961.57 555.76 971.65 555.76 983.2 553.72 996 549.53 997.7 553.04 1010.61 577.39 1022.73 616.81L1022.96 617.49C1022.96 617.49 1062.83 606.05 1073.14 591.32 1079.14 605.71 1093.41 615.9 1109.95 615.9 1131.93 615.9 1149.82 598.01 1149.82 576.03 1149.82 554.06 1131.93 536.16 1109.95 536.16Z" fill="#231f20" opacity="1" stroke-width="4" stroke="#000000"></path><path d="M991.02 670.05L971.31 662.68" stroke="#000000" stroke-width="4" stroke-linecap="round" stroke-linejoin="round" opacity="1" fill="none"></path><path d="M839.23 633.12L863.7 612.28" stroke="#000000" stroke-width="4" stroke-linecap="round" stroke-linejoin="round" opacity="1" fill="none"></path><path d="M774.78 576.82L770.14 602.08" stroke="#000000" stroke-width="4" stroke-linecap="round" stroke-linejoin="round" opacity="1" fill="none"></path><path d="M877.63 489.38C885.34 485.76 891.34 482.02 891.34 482.02" stroke="#000000" stroke-width="4" stroke-linecap="round" stroke-linejoin="round" opacity="1" fill="none"></path><path d="M848.3 451.43C852.83 451.55 857.36 449.85 860.76 446.9" stroke="#000000" stroke-width="4" stroke-linecap="round" stroke-linejoin="round" opacity="1" fill="none"></path><path d="M897.46 454.27L907.65 449.17" stroke="#000000" stroke-width="4" stroke-linecap="round" stroke-linejoin="round" opacity="1" fill="none"></path><path d="M861.32 426.51C862.89 426.51 864.15 425.25 864.15 423.68 864.15 422.12 862.89 420.85 861.32 420.85 859.76 420.85 858.49 422.12 858.49 423.68 858.49 425.25 859.76 426.51 861.32 426.51Z" fill="#231f20" opacity="1" stroke-width="4" stroke="#000000"></path><path d="M635.23 519.4C642.6 519.51 650.07 521.1 656.87 523.93" stroke="#000000" stroke-width="4" stroke-linecap="round" stroke-linejoin="round" opacity="1" fill="none"></path><path d="M639.76 504.67C653.36 505.8 661.4 509.2 661.4 509.2" stroke="#000000" stroke-width="4" stroke-linecap="round" stroke-linejoin="round" opacity="1" fill="none"></path><path d="M643.05 490.06C653.24 488.93 665.93 494.48 665.93 494.48" stroke="#000000" stroke-width="4" stroke-linecap="round" stroke-linejoin="round" opacity="1" fill="none"></path><path d="M739.1 537.63L688.7 580.11" stroke="#000000" stroke-width="4" stroke-linecap="round" stroke-linejoin="round" opacity="1" fill="none"></path><path d="M839.23 633.12L855.66 619.19C856.56 618.39 861.77 617.6 863.47 620.21 864.49 621.68 864.72 623.49 864.15 625.08L847.73 673.22 839.23 633.12Z" fill="#6554c000" opacity="0" stroke-width="4" stroke="#ffffff00"></path><path d="M725.96 1078.39V1078.16C725.85 1073.29 726.19 1068.31 727.89 1063.66V1063.55H823.83L823.6 1063.89C819.86 1068.42 816.35 1073.18 813.3 1078.27L813.18 1078.39H725.96Z" fill="#6554c0" opacity="1" stroke-width="4" stroke="#000000"></path><path d="M833.68 1053.35C845.46 1043.05 859.85 1035.46 875.25 1033.19 875.37 1033.19 875.37 1033.19 875.37 1033.31 875.48 1034.66 876.05 1049.5 876.05 1057.32 876.05 1064.11 876.05 1071.02 875.93 1078.05V1078.27H836.74L833.68 1053.35Z" fill="#6554c0" opacity="1" stroke-width="4" stroke="#000000"></path><path d="M548.92 1011.22L549.03 1010.99C551.19 1006.35 554.13 1002.04 557.76 998.64 557.87 998.64 557.87 998.53 557.98 998.64L638.97 1038.97 638.41 1039.2C632.63 1041.35 628.44 1043.84 623.23 1047.24L622.21 1047.8 548.92 1011.22Z" fill="#6554c0" opacity="1" stroke-width="4" stroke="#000000"></path><path d="M852.83 695.99L964.74 696.21 980.82 612.28" stroke="#000000" stroke-width="4" stroke-linecap="round" stroke-linejoin="round" opacity="1" fill="none"></path><path d="M894.74 743.67H937.67C937.67 743.67 951.26 791.36 923.05 791.36 894.85 791.36 894.74 743.67 894.74 743.67Z" stroke="#000000" stroke-width="4" stroke-linecap="round" stroke-linejoin="round" opacity="1" fill="none"></path><path d="M984.45 789.55C964.96 780.82 964.96 743.67 964.96 743.67H985.01" stroke="#000000" stroke-width="4" stroke-linecap="round" stroke-linejoin="round" opacity="1" fill="none"></path></g><g><path d="M937.89 739.16H967.49L967.49 848.37 937.89 848.37 937.89 739.16Z" fill="#ffab00" opacity="1" stroke-width="4" stroke="#000000"></path><path d="M918.5 882.06H948.1V991.27H918.5V882.06Z" fill="#ffab00" opacity="1" stroke-width="4" stroke="#000000"></path><path d="M918.5 917.78L948.1 908.59V882.06H918.5V917.78Z" fill="#ffab0000" opacity="0" stroke-width="4" stroke="#ffffff00"></path><path d="M937.89 774.88L967.49 765.69V739.16H937.89V774.88Z" fill="#ffab0000" opacity="0" stroke-width="4" stroke="#ffffff00"></path><path d="M952.29 981.06H914.32C907.58 981.06 902.17 986.47 902.17 993.21V1009.64H964.43V993.21C964.43 986.47 959.02 981.06 952.29 981.06Z" fill="#0052cc" opacity="1" stroke-width="4" stroke="#000000"></path><path d="M914.32 896.34H952.29C959.02 896.34 964.43 890.94 964.43 884.2V861.23H902.17V865.72 884.2C902.17 890.94 907.58 896.34 914.32 896.34Z" fill="#0052cc" opacity="1" stroke-width="4" stroke="#000000"></path><path d="M1004.24 650.36H901.15C872.98 650.36 850.11 673.22 850.11 701.39 850.11 729.56 872.98 752.43 901.15 752.43H1004.24C1032.41 752.43 1055.28 729.56 1055.28 701.39 1055.28 673.22 1032.41 650.36 1004.24 650.36Z" fill="#0052cc" opacity="1" stroke-width="4" stroke="#000000"></path><path d="M864.91 838.16H781.22C773.05 838.16 766.42 844.8 766.42 852.97 766.42 861.13 773.05 867.77 781.22 867.77H864.91C873.08 867.77 892.98 861.13 892.98 852.97 892.98 844.8 873.08 838.16 864.91 838.16Z" fill="#0052cc" opacity="1" stroke-width="4" stroke="#000000"></path><path d="M1020.06 1036.59V1021.28C1020.06 1014.85 1014.86 1009.64 1008.42 1009.64H858.28C851.85 1009.64 846.64 1014.85 846.64 1021.28V1036.59" stroke="#000000" stroke-width="4" stroke-linecap="round" stroke-linejoin="round" opacity="1" fill="none"></path><path d="M933.3 1036.18V998.21" stroke="#000000" stroke-width="4" stroke-linecap="round" stroke-linejoin="round" opacity="1" fill="none"></path><path d="M933.3 1078.44C919.49 1078.44 908.29 1067.24 908.29 1053.43 908.29 1039.62 919.49 1028.42 933.3 1028.42 947.11 1028.42 958.31 1039.62 958.31 1053.43 958.31 1067.24 947.11 1078.44 933.3 1078.44Z" fill="#0052cc" opacity="1" stroke-width="4" stroke="#000000"></path><path d="M1020.06 1078.44C1006.25 1078.44 995.05 1067.24 995.05 1053.43 995.05 1039.62 1006.25 1028.42 1020.06 1028.42 1033.87 1028.42 1045.07 1039.62 1045.07 1053.43 1045.07 1067.24 1033.87 1078.44 1020.06 1078.44Z" fill="#0052cc" opacity="1" stroke-width="4" stroke="#000000"></path><path d="M1020.06 1058.64C1016.96 1058.64 1014.45 1056.13 1014.45 1053.02 1014.45 1049.92 1016.96 1047.41 1020.06 1047.41 1023.16 1047.41 1025.67 1049.92 1025.67 1053.02 1025.67 1056.13 1023.16 1058.64 1020.06 1058.64Z" fill="#ffab00" opacity="1" stroke-width="4" stroke="#000000"></path><path d="M933.3 1058.64C930.2 1058.64 927.69 1056.13 927.69 1053.02 927.69 1049.92 930.2 1047.41 933.3 1047.41 936.4 1047.41 938.91 1049.92 938.91 1053.02 938.91 1056.13 936.4 1058.64 933.3 1058.64Z" fill="#ffab00" opacity="1" stroke-width="4" stroke="#000000"></path><path d="M846.54 1078.44C832.73 1078.44 821.53 1067.24 821.53 1053.43 821.53 1039.62 832.73 1028.42 846.54 1028.42 860.35 1028.42 871.55 1039.62 871.55 1053.43 871.55 1067.24 860.35 1078.44 846.54 1078.44Z" fill="#0052cc" opacity="1" stroke-width="4" stroke="#000000"></path><path d="M967.49 752.43H937.89" stroke="#000000" stroke-width="4" stroke-linecap="round" stroke-linejoin="round" opacity="1" fill="none"></path><path d="M994.03 701.39H911.36" stroke="#000000" stroke-width="4" stroke-linecap="round" stroke-linejoin="round" opacity="1" fill="none"></path><path d="M846.54 1058.64C843.44 1058.64 840.93 1056.13 840.93 1053.02 840.93 1049.92 843.44 1047.41 846.54 1047.41 849.64 1047.41 852.15 1049.92 852.15 1053.02 852.15 1056.13 849.64 1058.64 846.54 1058.64Z" fill="#ffab00" opacity="1" stroke-width="4" stroke="#000000"></path><path d="M1040.47 838.16L864.91 838.16C856.75 838.16 850.11 844.8 850.11 852.97 850.11 861.13 856.75 867.77 864.91 867.77L1040.47 867.77C1048.64 867.77 1055.28 861.13 1055.28 852.97 1055.28 844.8 1048.64 838.16 1040.47 838.16Z" fill="#ffab00" opacity="1" stroke-width="4" stroke="#000000"></path><path d="M964.43 867.77L902.17 867.77" stroke="#000000" stroke-width="4" stroke-linecap="round" stroke-linejoin="round" opacity="1" fill="none"></path><path d="M967.49 838.16L937.89 838.16" stroke="#000000" stroke-width="4" stroke-linecap="round" stroke-linejoin="round" opacity="1" fill="none"></path></g></svg>