<svg xmlns="http://www.w3.org/2000/svg" height="1200" width="1600" version="1.1"
     xmlns:xlink="http://www.w3.org/1999/xlink" xmlns:svgjs="http://svgjs.com/svgjs">
  <g>
    <path
      d="M1039.32 691.31C1080.57 654.96 1157.02 605.88 1221.03 647.55 1221.03 647.55 1158.06 565.26 1190.12 526.83 1232 476.49 1355.23 613.29 1336.74 636.79 1317.74 660.81 1275.23 553.35 1297.48 493.62 1315.02 446.62 1398.78 517.11 1412.25 558.78"
      stroke="#000000" stroke-width="4" stroke-linecap="round" stroke-linejoin="round" opacity="1" fill="none"></path>
  </g>
  <g>
    <path
      d="M747.06 729.55H633.98C610.83 729.55 592.1 748.37 592.1 771.66V899.97C592.1 923.26 610.83 942.09 633.98 942.09H847.32C855.45 942.09 861.86 935.4 861.86 927.47 861.86 919.3 855.45 912.61 847.32 912.61 847.32 912.61 847.32 912.61 847.08 912.61H788.45V771.66C788.69 748.37 769.97 729.55 747.06 729.55Z"
      fill="#ff5630" opacity="1" stroke-width="4" stroke="#000000"></path>
    <path
      d="M747.06 727.32H633.98C610.83 727.32 592.1 746.14 592.1 769.43V879.91L788.45 831.85V769.43C788.69 746.14 769.97 727.32 747.06 727.32Z"
      fill="#ff563000" opacity="0" stroke-width="4" stroke="#ffffff00"></path>
    <path
      d="M346 304.47L895.36 304.47C931.33 304.47 965.82 333.7 971.98 370.11L1039.48 754.56C1045.89 790.73 1021.74 820.21 985.78 820.21H436.41C400.44 820.21 365.95 790.98 359.79 754.56L292.29 370.11C285.89 333.7 310.03 304.47 346 304.47Z"
      fill="#ff5630" opacity="1" stroke-width="4" stroke="#000000"></path>
    <path
      d="M383.93 362.93L877.87 362.93C897.09 362.93 915.07 378.53 918.52 397.61L971.98 702.54 408.82 702.54 355.36 397.61C352.15 378.53 364.72 362.93 383.93 362.93Z"
      fill="#ffffff" opacity="1" stroke-width="4" stroke="#000000"></path>
    <path d="M590.33 820.38H790.2" stroke="#000000" stroke-width="4" stroke-linecap="round" stroke-linejoin="round"
          opacity="1" fill="none"></path>
    <path
      d="M622.4 340.53C618.98 337.39 618.39 332.48 621.05 329.56 623.71 326.64 628.64 326.81 632.06 329.96 635.46 333.08 636.08 338.01 633.42 340.93 630.73 343.85 625.8 343.68 622.4 340.53Z"
      fill="#000000" opacity="1" stroke-width="4" stroke="#000000"></path>
  </g>
  <g>
    <path
      d="M711.12 680.04C695.95 680.04 602.63 649.02 586.11 567.5L563.82 457.59C563.84 457.58 563.86 457.58 563.88 457.58 564.26 457.58 566.47 457.75 570 457.75 587.2 457.75 630.24 454.07 658.39 420.06 700.38 454.07 744.91 457.75 762.1 457.75 765.95 457.75 768.15 457.55 768.17 457.55L790.5 567.5C807.02 649.02 726.28 680.04 711.12 680.04Z"
      fill="#61a1ff00" opacity="0" stroke-width="4" stroke="#ffffff00"></path>
    <path
      d="M690.43 664.14C675.27 664.14 581.95 633.11 565.42 551.6L543.14 441.68C543.16 441.68 543.18 441.67 543.2 441.68 543.58 441.68 545.79 441.84 549.32 441.84 566.52 441.84 609.55 438.17 637.71 404.15 679.7 438.17 724.23 441.84 741.42 441.84 745.27 441.84 747.46 441.64 747.49 441.64L769.82 551.6C786.34 633.11 705.59 664.14 690.43 664.14Z"
      fill="#61a1ff" opacity="1" stroke-width="4" stroke="#000000"></path>
    <path
      d="M674.89 587.45C704.34 587.45 723.37 563.59 717.4 534.14 711.43 504.7 682.72 480.83 653.28 480.83 623.83 480.83 604.8 504.7 610.77 534.14 616.74 563.59 645.44 587.45 674.89 587.45Z"
      fill="#36b37e" opacity="1" stroke-width="4" stroke="#000000"></path>
    <path d="M646.23 532.2L663.34 546.43 679.05 521.86" stroke="#000000" stroke-width="4" stroke-linecap="round"
          stroke-linejoin="round" opacity="1" fill="none"></path>
  </g>
  <g>
    <path
      d="M1075.89 907.41C1079.6 889.51 1081.7 871.36 1082.1 853.37L1079.52 849.58 1006.45 852.97 1006.37 853.37C1006.53 855.87 1006.53 858.29 1006.61 860.63 1006.93 869.02 1006.93 875.31 1006.61 880.39L1028.63 921.93 1075.89 907.41Z"
      fill="#ffd8c2" opacity="1" stroke-width="4" stroke="#000000"></path>
    <path
      d="M1220.67 907.41C1221.72 889.91 1220.83 871.68 1218.09 853.37L1217.12 851.76 1143 848.69V853.29C1144.21 856.03 1145.42 858.61 1146.3 860.71 1149.21 867 1151.39 874.18 1152.92 880.96L1173.16 921.2 1220.67 907.41Z"
      fill="#ffd8c2" opacity="1" stroke-width="4" stroke="#000000"></path>
    <path
      d="M1036.52 525.14H1061.04 1100.25 1125.25C1125.5 531.96 1151.95 565.91 1158.32 607.37 1160.34 620.52 1161.47 635.68 1162.6 651.65 1165.02 685.61 1167.84 724 1180.91 750.94 1182.44 754.16 1183.97 757.23 1185.42 760.21 1197.68 785.22 1207.28 804.98 1212.36 825.14 1214.78 834.66 1216.64 843.93 1218.09 853.37L1143.08 853.45C1143.08 853.45 1138.32 843.05 1135.66 837.16 1124.93 813.37 1111.62 783.76 1101.06 755.86 1095.49 741.18 1090.41 723.03 1085.97 704.56 1081.46 720.21 1077.59 735.53 1076.05 749.32 1074.52 763.2 1076.54 781.02 1078.71 799.9 1079.84 810.46 1081.13 821.35 1081.7 831.59 1082.18 839.5 1082.26 846.6 1082.1 853.37H1006.37C1005.56 836.19 1003.87 816.27 1001.53 788.6 1001.12 783.85 1000.72 778.84 1000.24 773.52 990.72 660.12 1026.85 552.12 1033.7 533.97Z"
      fill="#36b37e" opacity="1" stroke-width="4" stroke="#000000"></path>
    <path
      d="M1076.05 749.32C1078.39 728.11 1078.47 728.6 1085.97 704.56L1073.15 638.91C1073.15 638.91 1073.23 638.99 1073.15 638.91 1073.15 638.91 1062.58 587.37 1059.03 615.44 1053.55 660.12 1075.81 748.44 1076.05 749.32Z"
      fill="#36b37e00" opacity="0" stroke-width="4" stroke="#ffffff00"></path>
    <path
      d="M1001.77 791.83C1019.76 789.57 1033.31 774.25 1033.31 756.18 1033.31 736.82 1018.14 721.1 998.87 720.29 998.38 738.52 998.78 756.42 1000.24 773.52 1000.56 777.47 1000.88 781.18 1001.2 784.81 1001.28 787.15 1001.69 791.83 1001.77 791.83Z"
      fill="#15201b" opacity="1" stroke-width="4" stroke="#000000"></path>
    <path
      d="M1114.04 787.96C1125.98 781.83 1133.32 769.65 1133.32 756.18 1133.32 736.34 1117.19 720.29 1097.43 720.29 1095.01 720.29 1092.59 720.53 1090.17 721.01 1093.64 734.24 1097.35 745.94 1101.06 755.78 1104.69 765.46 1108.96 775.94 1114.04 787.96Z"
      fill="#15201b" opacity="1" stroke-width="4" stroke="#000000"></path>
    <path d="M1086.54 706.82C1078.63 674.56 1071.86 637.21 1066.94 604.71" stroke="#000000" stroke-width="4"
          stroke-linecap="round" stroke-linejoin="round" opacity="1" fill="none"></path>
    <path
      d="M860.14 532.28C861.02 532.28 861.83 532.04 862.56 531.71 864.49 530.67 865.78 528.57 865.78 526.47 865.78 526.47 871.83 528.25 878.04 528.25 883.12 528.25 886.91 527.12 889.25 524.94 889.25 524.94 889.33 524.86 889.33 524.94 890.06 525.26 898.42 528.59 907.61 531.87L917.81 478.4C895.79 473.7 875.54 472.75 860.54 472.75 830.94 472.75 815.29 474.37 812.95 477.76 812.55 478.24 812.47 478.88 812.71 479.53 814.89 486.14 840.13 487.35 850.83 487.73 840.29 487.35 835.37 490.58 835.13 495.18 834.97 497.92 836.5 500.58 839.57 503.16 839.57 503.16 837.71 505.18 837.96 507.92 838.12 510.1 839.49 512.11 842.07 514.05L844.89 515.99C844.81 515.99 841.34 520.66 847.72 525.83 853.44 530.26 857.23 532.28 860.14 532.28Z"
      fill="#ffd8c2" stroke-linecap="round" stroke-linejoin="round" opacity="1" stroke-width="4"
      stroke="#000000"></path>
    <path
      d="M975.23 547.52C978.22 547.52 980.96 547.36 983.46 546.96 990.88 545.75 999.43 540.59 1008.87 531.55 1016.53 524.21 1024.68 514.29 1031.85 503.57 1031.93 503.4 1032.1 503.48 1032.18 503.65L1034.35 532.44H1125.25L1161.63 415.57 1158.32 412.18C1142.51 396.37 1121.14 394.03 1109.77 394.03 1104.93 394.03 1101.86 394.44 1101.86 394.44L1052.66 396.86C1052.5 396.86 1033.14 397.82 1021.21 409.76 996.53 435.25 969.83 488.24 969.59 488.81 969.34 488.72 945.15 482.68 916.6 478.08L906.03 531.31C922.64 537.44 953.54 547.52 975.23 547.52Z"
      fill="#61a1ff" opacity="1" stroke-width="4" stroke="#000000"></path>
    <path d="M1034.06 532.3H1126.95" stroke="#000000" stroke-width="4" stroke-linecap="round" stroke-linejoin="round"
          opacity="1" fill="none"></path>
    <path d="M1017.09 522.68C1022.34 516.63 1027.34 510.02 1031.93 503.08L1029.27 471.06 1017.09 522.68Z"
          fill="#61a1ff00" opacity="0" stroke-width="4" stroke="#ffffff00"></path>
    <path d="M1094.6 532.36H1125.25L1137.28 493.72 1134.97 490.6 1125.29 477.12 1094.6 532.36Z" fill="#61a1ff00"
          opacity="0" stroke-width="4" stroke="#ffffff00"></path>
    <path d="M969.59 488.81L974.91 499.77" stroke="#000000" stroke-width="4" stroke-linecap="round"
          stroke-linejoin="round" opacity="1" fill="none"></path>
    <path
      d="M874.9 473.16C874.9 473.16 844.97 488.97 844.09 495.5 843.2 502.52 871.11 493.48 871.11 493.48 871.11 493.48 880.54 506.55 890.95 509.86"
      stroke="#000000" stroke-width="4" stroke-linecap="round" stroke-linejoin="round" opacity="1" fill="none"></path>
    <path d="M865.86 526.15C866.1 522.36 861.27 519.05 861.27 519.05" stroke="#000000" stroke-width="4"
          stroke-linecap="round" stroke-linejoin="round" opacity="1" fill="none"></path>
    <path d="M844.97 515.91C852.39 520.26 864.17 523.65 862.64 512.76" stroke="#000000" stroke-width="4"
          stroke-linecap="round" stroke-linejoin="round" opacity="1" fill="none"></path>
    <path d="M839.65 503.08C843.04 505.42 859.17 515.91 863.77 510.18 868.36 504.45 857.56 497.76 857.56 497.76"
          stroke="#000000" stroke-width="4" stroke-linecap="round" stroke-linejoin="round" opacity="1"
          fill="none"></path>
    <path
      d="M1218.73 930.8C1219.62 922.17 1220.27 914.59 1220.67 907.41H1180.18L1182.44 892.41C1182.52 891.92 1182.52 891.36 1182.52 890.88 1182.52 885.07 1177.84 880.39 1172.03 880.39H1152.76C1155.1 892.73 1152.43 899.43 1150.26 903.38 1148 907.41 1141.38 912.01 1135.01 916.53 1130.01 919.99 1124.85 923.62 1122.03 926.77 1120.82 928.14 1119.77 929.91 1119.28 931.2L1168.06 936.31Z"
      fill="#ffab00" opacity="1" stroke-width="4" stroke="#000000"></path>
    <path
      d="M1217.2 943.71C1217.77 939.35 1218.25 935.08 1218.73 930.88V930.72H1119.28C1117.35 934.75 1116.62 939.27 1117.19 943.63L1217.2 943.71Z"
      fill="#322a19" opacity="1" stroke-width="4" stroke="#000000"></path>
    <path
      d="M1070.17 931.04C1072.34 923.22 1074.28 915.07 1075.89 907.41H1033.31L1035.56 892.41C1035.64 891.92 1035.64 891.36 1035.64 890.88 1035.64 885.07 1030.97 880.39 1025.16 880.39H1006.61C1005.8 891.84 1003.46 896.93 998.62 903.38 996.04 906.85 990.56 910.96 984.75 915.4 979.59 919.27 974.26 923.3 971.2 926.77 969.99 928.14 969.34 929.11 968.7 930.32L968.46 931.12 1013.95 939.04Z"
      fill="#ffab00" opacity="1" stroke-width="4" stroke="#000000"></path>
    <path
      d="M1066.46 943.71C1067.83 939.35 1069.12 935 1070.25 930.8H968.54C966.6 934.83 965.88 939.35 966.44 943.71H1066.46Z"
      fill="#322a19" opacity="1" stroke-width="4" stroke="#000000"></path>
    <path d="M1148.27 906.17L1157.52 913.06" stroke="#000000" stroke-width="4" stroke-linecap="round"
          stroke-linejoin="round" opacity="1" fill="none"></path>
    <path d="M996.07 906.36L1005.88 913.06" stroke="#000000" stroke-width="4" stroke-linecap="round"
          stroke-linejoin="round" opacity="1" fill="none"></path>
    <path
      d="M1072.75 418.71C1097.51 418.71 1104.12 394.76 1104.2 394.52 1104.12 393.87 1098.8 336.93 1097.59 325.96 1095.17 303.78 1083.47 303.13 1062.42 303.13 1059.28 303.13 1055.57 296.76 1052.02 297.33 1034.11 299.99 1021.13 301.92 1016.04 315.23 1013.95 320.56 1014.27 328.22 1014.51 336.28 1014.59 339.27 1014.75 342.25 1014.75 345.32 1014.75 345.32 1008.3 349.11 1008.46 352.17 1008.71 355.72 1015.8 359.27 1015.8 359.27 1016.21 369.11 1016.61 379.27 1023.71 386.53 1026.53 389.44 1031.85 391.13 1037.74 391.13 1041.77 391.13 1045.73 390.32 1049.36 388.87L1050.16 397.74C1050.16 397.99 1055.81 418.71 1072.75 418.71Z"
      fill="#ffd8c2" opacity="1" stroke-width="4" stroke="#000000"></path>
    <path
      d="M1060.65 382.1C1056.7 390.4 1052.02 393.95 1050.49 394.92 1050.24 395.08 1049.92 394.92 1049.84 394.6L1049.36 389.11C1049.36 388.95 1049.44 388.79 1049.52 388.71L1060 381.53C1060.41 381.29 1060.89 381.69 1060.65 382.1Z"
      fill="#ffd8c200" opacity="0" stroke-width="4" stroke="#ffffff00"></path>
    <path d="M1049.36 388.87C1052.5 386.86 1056.29 384.11 1059.6 381.85" stroke="#000000" stroke-width="4"
          stroke-linecap="round" stroke-linejoin="round" opacity="1" fill="none"></path>
    <path d="M1066.37 357.34L1073.63 350.88" stroke="#000000" stroke-width="4" stroke-linecap="round"
          stroke-linejoin="round" opacity="1" fill="none"></path>
    <path d="M1025.8 364.51C1028.39 364.19 1031.21 362.98 1032.66 359.51" stroke="#000000" stroke-width="4"
          stroke-linecap="round" stroke-linejoin="round" opacity="1" fill="none"></path>
    <path
      d="M1026.29 345.08C1024.91 345.08 1023.79 343.95 1023.79 342.58 1023.79 341.2 1024.91 340.07 1026.29 340.07 1027.67 340.07 1028.79 341.2 1028.79 342.58 1028.79 343.95 1027.67 345.08 1026.29 345.08Z"
      fill="#231f20" opacity="1" stroke-width="4" stroke="#000000"></path>
    <path
      d="M1096.62 378.23C1098.88 378.23 1100.65 378.06 1101.7 377.98 1102.35 377.9 1102.75 377.42 1102.67 376.77 1101.14 358.22 1098.56 329.99 1097.75 322.49 1095.33 300.39 1083.39 289.18 1062.34 289.18 1059.2 289.18 1055.73 289.42 1052.18 289.99 1034.27 292.65 1020.96 301.76 1015.8 315.07 1014.59 318.14 1014.35 322.01 1014.19 325.23 1014.19 325.8 1014.59 326.28 1015.16 326.36 1015.72 326.44 1016.45 326.52 1017.34 326.52 1020.72 326.52 1027.34 325.4 1035.72 318.14 1036.61 317.41 1037.82 318.22 1037.58 319.27 1036.21 324.27 1036.29 327.9 1037.82 330.07 1038.87 331.61 1040.73 332.41 1043.23 332.41 1046.21 332.41 1049.6 331.28 1051.61 330.48 1052.42 330.15 1053.23 330.8 1053.15 331.61 1052.9 334.59 1052.82 340.48 1055.08 344.67 1055.41 345.32 1056.29 345.4 1056.78 344.99 1059.76 342.41 1068.87 334.99 1076.54 334.99 1079.6 334.99 1082.18 336.2 1084.04 338.62 1094.52 351.93 1079.6 366.93 1075.41 370.8 1074.84 371.29 1074.92 372.18 1075.57 372.58 1082.26 377.26 1090.65 378.23 1096.62 378.23Z"
      fill="#545454" opacity="1" stroke-width="4" stroke="#000000"></path>
    <path
      d="M1051.05 551.72C1045.32 555.35 1040.16 559.46 1040 561.4 1039.84 563.33 1043.31 565.59 1048.39 565.11L1056.78 558.81 1051.05 551.72Z"
      fill="#ffd8c2" opacity="1" stroke-width="4" stroke="#000000"></path>
    <path d="M1090.65 620.36L1043.23 538.17 988.78 569.54 1036.29 651.73 1090.65 620.36Z" fill="#ffffff"
          stroke-linecap="round" stroke-linejoin="round" opacity="1" stroke-width="4" stroke="#000000"></path>
    <path
      d="M1135.53 491.72L1145.42 505.74C1145.18 505.82 1122.35 517.12 1104.85 525.42L1126.95 575.51C1150.01 570.03 1191.07 557.52 1206.72 535.59 1232.36 499.69 1180.83 433.63 1158.32 412.18"
      fill="#61a1ff" stroke-linecap="round" stroke-linejoin="round" opacity="1" stroke-width="4"
      stroke="#000000"></path>
    <path
      d="M1050.24 615.44C1059.84 615.44 1108.64 579.46 1109.12 579.14 1109.2 579.14 1116.54 578.01 1127.11 575.51L1105.17 525.26C1097.75 528.73 1091.38 531.71 1088.15 533.17 1058.63 545.91 1051.13 551.64 1051.05 551.72L1055.08 558.98C1054.84 559.14 1026.77 578.41 1022.01 585.59 1020.32 588.09 1019.76 590.43 1020.24 592.45 1020.8 594.95 1022.82 596.08 1022.82 596.08 1020.96 599.55 1020.56 602.21 1021.61 604.06 1023.06 606.56 1026.77 606.56 1026.85 606.56 1027.18 609.39 1029.03 610.76 1032.34 610.76 1040.81 610.76 1056.37 601.08 1056.7 600.92 1056.37 601.16 1045.89 610.68 1047.26 614.14 1047.58 615.03 1048.55 615.44 1050.24 615.44Z"
      fill="#ffd8c2" opacity="1" stroke-width="4" stroke="#000000"></path>
    <path d="M1032.1 503.16L1029.27 471.06" stroke="#000000" stroke-width="4" stroke-linecap="round"
          stroke-linejoin="round" opacity="1" fill="none"></path>
    <path d="M1136.14 492.6L1125.17 477.03" stroke="#000000" stroke-width="4" stroke-linecap="round"
          stroke-linejoin="round" opacity="1" fill="none"></path>
    <path d="M1145.42 504.94L1162.03 507.52" stroke="#000000" stroke-width="4" stroke-linecap="round"
          stroke-linejoin="round" opacity="1" fill="none"></path>
    <path d="M1022.82 596.08L1058.31 571.07" stroke="#000000" stroke-width="4" stroke-linecap="round"
          stroke-linejoin="round" opacity="1" fill="none"></path>
    <path d="M1026.85 606.56L1064.76 581.56" stroke="#000000" stroke-width="4" stroke-linecap="round"
          stroke-linejoin="round" opacity="1" fill="none"></path>
    <path d="M1056.7 600.92L1070.41 592.05" stroke="#000000" stroke-width="4" stroke-linecap="round"
          stroke-linejoin="round" opacity="1" fill="none"></path>
  </g>
  <g>
    <path
      d="M238.37 920.74L293.39 1024.82C294.26 1025.49 296.38 1025.49 296.86 1024.72L409.52 854.34C409.81 853.86 409.32 853.28 408.84 853.48L239.72 917.08C238.95 917.27 237.31 919.01 238.37 920.74Z"
      fill="#61a1ff" opacity="1" stroke-width="4" stroke="#000000"></path>
    <path
      d="M239.14 919.2L294.45 1023.85C294.84 1024.53 294.07 1025.3 293.39 1024.82L227.38 982.7 237.98 919.39C238.08 918.81 238.85 918.62 239.14 919.2Z"
      fill="#23201f" opacity="1" stroke-width="4" stroke="#000000"></path>
  </g>
  <g>
    <path
      d="M222.77 189.85L328.4 266.6C328.79 266.21 328.98 265.25 328.79 264.48L292.77 143.73 224.69 176.27C223.92 176.56 222.19 189.27 222.77 189.85Z"
      fill="#ffab00" opacity="1" stroke-width="4" stroke="#000000"></path>
    <path
      d="M328.11 266.69L216.89 211.33C216.61 211.13 216.41 210.84 216.51 210.46L224.12 176.76C224.21 176.18 224.89 175.99 225.37 176.37L328.5 266.21C328.69 266.5 328.4 266.89 328.11 266.69Z"
      fill="#23201f" opacity="1" stroke-width="4" stroke="#000000"></path>
  </g>
  <g>
    <path
      d="M1202.61 193.4H1316.73C1322.58 193.4 1327.37 198.19 1327.37 204.05V334.87C1327.37 340.72 1322.58 345.51 1316.73 345.51H1202.61C1196.75 345.51 1191.96 340.72 1191.96 334.87V204.05C1191.96 198.14 1196.75 193.4 1202.61 193.4Z"
      fill="#ffab00" opacity="1" stroke-width="4" stroke="#000000"></path>
    <path d="M1216.26 227.01L1220.94 231.7 1228.53 224.16" stroke="#000000" stroke-width="4" stroke-linecap="round"
          stroke-linejoin="round" opacity="1" fill="none"></path>
    <path
      d="M1225.38 272.7C1227.74 271.07 1228.32 267.83 1226.69 265.48 1225.06 263.11 1221.83 262.53 1219.47 264.16 1217.11 265.79 1216.52 269.03 1218.15 271.39 1219.78 273.75 1223.02 274.34 1225.38 272.7Z"
      stroke="#000000" stroke-width="4" stroke-linecap="round" stroke-linejoin="round" opacity="1" fill="none"></path>
    <path
      d="M1225.38 313.13C1227.73 311.5 1228.32 308.27 1226.69 305.91 1225.06 303.55 1221.82 302.96 1219.46 304.59 1217.11 306.22 1216.52 309.46 1218.15 311.82 1219.78 314.18 1223.02 314.77 1225.38 313.13Z"
      stroke="#000000" stroke-width="4" stroke-linecap="round" stroke-linejoin="round" opacity="1" fill="none"></path>
    <path d="M1243.24 228.9H1290.6" stroke="#000000" stroke-width="4" stroke-linecap="round" stroke-linejoin="round"
          opacity="1" fill="none"></path>
    <path d="M1243.24 268.46H1290.6" stroke="#000000" stroke-width="4" stroke-linecap="round" stroke-linejoin="round"
          opacity="1" fill="none"></path>
    <path d="M1243.24 308.54H1290.6" stroke="#000000" stroke-width="4" stroke-linecap="round" stroke-linejoin="round"
          opacity="1" fill="none"></path>
  </g>
  <g>
    <path
      d="M1340.76 993.43C1332.24 999.31 1314.69 1006.21 1300.38 992.58 1286.24 979.04 1284.62 969.33 1265.45 961.74 1248.84 955.1 1227.97 967.03 1227.97 967.03L1239.04 1012.43C1239.04 1012.43 1254.29 1004.93 1266.22 1009.96 1287.34 1018.9 1289.65 1041.82 1314.86 1047.1 1334.03 1051.11 1351.15 1039.44 1351.15 1039.44L1340.76 993.43Z"
      fill="#ffffff" opacity="1" stroke-width="4" stroke="#000000"></path>
  </g>
</svg>
